<?xml version="1.0" encoding="utf-8"?>
<!-- Generator: Adobe Illustrator 18.0.0, SVG Export Plug-In . SVG Version: 6.00 Build 0)  -->
<!DOCTYPE svg PUBLIC "-//W3C//DTD SVG 1.1//EN" "http://www.w3.org/Graphics/SVG/1.1/DTD/svg11.dtd">
<svg version="1.1" id="Layer_1" xmlns="http://www.w3.org/2000/svg" xmlns:xlink="http://www.w3.org/1999/xlink" x="0px" y="0px"
	 viewBox="0 0 600 600" enable-background="new 0 0 600 600" xml:space="preserve">
<g opacity="0.58">
	<defs>
		<path id="SVGID_1_" opacity="0.58" d="M53.1,303.5c0,136,110.2,246.2,246.2,246.2c136,0,246.2-110.2,246.2-246.2
			c0-136-110.2-246.2-246.2-246.2C163.3,57.3,53.1,167.5,53.1,303.5"/>
	</defs>
	<linearGradient id="SVGID_2_" gradientUnits="userSpaceOnUse" x1="293.8165" y1="63.5171" x2="306.5273" y2="622.7901">
		<stop  offset="5.376344e-003" style="stop-color:#C9C9C9;stop-opacity:0.2"/>
		<stop  offset="0.2618" style="stop-color:#ABABAB;stop-opacity:0.2"/>
		<stop  offset="0.7589" style="stop-color:#747474;stop-opacity:0.2"/>
		<stop  offset="1" style="stop-color:#5E5E5E;stop-opacity:0.2"/>
	</linearGradient>
	<use xlink:href="#SVGID_1_"  overflow="visible" fill="url(#SVGID_2_)"/>
	<clipPath id="SVGID_3_">
		<use xlink:href="#SVGID_1_"  overflow="visible"/>
	</clipPath>
	<defs>
		<filter id="Adobe_OpacityMaskFilter" filterUnits="userSpaceOnUse" x="50.2" y="54.4" width="498.2" height="498.2">
			<feColorMatrix  type="matrix" values="1 0 0 0 0  0 1 0 0 0  0 0 1 0 0  0 0 0 1 0"/>
		</filter>
	</defs>
	<mask maskUnits="userSpaceOnUse" x="50.2" y="54.4" width="498.2" height="498.2" id="SVGID_4_">
		<g filter="url(#Adobe_OpacityMaskFilter)">
			
				<linearGradient id="SVGID_5_" gradientUnits="userSpaceOnUse" x1="2.553" y1="720.8379" x2="3.9243" y2="720.8379" gradientTransform="matrix(3.6783 630.4891 -630.4891 3.6783 454768.375 -4283.8911)">
				<stop  offset="0" style="stop-color:#000000"/>
				<stop  offset="1" style="stop-color:#FFFFFF"/>
			</linearGradient>
			<polygon clip-path="url(#SVGID_3_)" fill="url(#SVGID_5_)" points="50.2,57.3 53.1,552.6 548.4,549.7 545.5,54.4 			"/>
		</g>
	</mask>
	<linearGradient id="SVGID_6_" gradientUnits="userSpaceOnUse" x1="293.8165" y1="63.5171" x2="306.5273" y2="622.7901">
		<stop  offset="5.376344e-003" style="stop-color:#C9C9C9;stop-opacity:0.2"/>
		<stop  offset="0.2618" style="stop-color:#ABABAB;stop-opacity:0.2"/>
		<stop  offset="0.7589" style="stop-color:#747474;stop-opacity:0.2"/>
		<stop  offset="1" style="stop-color:#5E5E5E;stop-opacity:0.2"/>
	</linearGradient>
	<polygon clip-path="url(#SVGID_3_)" mask="url(#SVGID_4_)" fill="url(#SVGID_6_)" points="50.2,57.3 53.1,552.6 548.4,549.7 
		545.5,54.4 	"/>
</g>
<g>
	<defs>
		<path id="SVGID_7_" d="M173.4,89.5c-9.2,0-18.1,3.7-24.6,10.2c-6.5,6.5-10.2,15.4-10.2,24.6v282.5h0.4V506c0,3.8,1,7.6,2.9,10.9
			c1.9,3.3,4.6,6.2,7.8,8.2c3.3,2,7,3.1,10.8,3.3c3.8,0.2,7.6-0.7,11-2.4L286,468c3.1-1.6,6.6-2.4,10-2.4c3.5,0,6.9,0.8,10,2.4
			l117.9,58.4c3.4,1.7,7.2,2.5,11,2.3c3.8-0.2,7.5-1.3,10.8-3.4c3.2-2,5.9-4.8,7.8-8.2c1.9-3.3,2.8-7.1,2.8-10.9l-0.3-99.5V124.2
			c0-9.2-3.7-18-10.2-24.5c-6.5-6.5-15.3-10.2-24.5-10.2H173.4z"/>
	</defs>
	<linearGradient id="SVGID_8_" gradientUnits="userSpaceOnUse" x1="138.6586" y1="309.1412" x2="456.2937" y2="309.1412">
		<stop  offset="0" style="stop-color:#FFFFFF"/>
		<stop  offset="0.2588" style="stop-color:#FCFBFC"/>
		<stop  offset="0.4883" style="stop-color:#F2F1F2"/>
		<stop  offset="0.7067" style="stop-color:#E1DFE2"/>
		<stop  offset="0.9169" style="stop-color:#CAC5CC"/>
		<stop  offset="1" style="stop-color:#BFB9C1"/>
	</linearGradient>
	<use xlink:href="#SVGID_7_"  overflow="visible" fill="url(#SVGID_8_)"/>
	<clipPath id="SVGID_9_">
		<use xlink:href="#SVGID_7_"  overflow="visible"/>
	</clipPath>
	
		<linearGradient id="SVGID_10_" gradientUnits="userSpaceOnUse" x1="2.8994" y1="721.5683" x2="4.2708" y2="721.5683" gradientTransform="matrix(-277.6805 -249.5004 249.5004 -277.6805 -178677.9531 201623.625)">
		<stop  offset="0" style="stop-color:#FFFFFF"/>
		<stop  offset="0.2588" style="stop-color:#FCFBFC"/>
		<stop  offset="0.4883" style="stop-color:#F2F1F2"/>
		<stop  offset="0.7067" style="stop-color:#E1DFE2"/>
		<stop  offset="0.9169" style="stop-color:#CAC5CC"/>
		<stop  offset="1" style="stop-color:#BFB9C1"/>
	</linearGradient>
	<polygon clip-path="url(#SVGID_9_)" fill="url(#SVGID_10_)" points="674.7,285.8 280.5,-68.4 -79.8,332.6 314.4,686.8 	"/>
</g>
<g>
	<defs>
		<path id="SVGID_11_" d="M299.7,154.7c-1.4,0.8-2.5,2-3.2,3.4l-20.8,42.1c-0.6,1.2-1.5,2.3-2.7,3.1c-1.1,0.8-2.4,1.4-3.8,1.6
			l-46.4,6.7c-1.6,0.2-3,0.9-4.3,1.9c-1.2,1-2.1,2.4-2.6,3.9c-0.5,1.5-0.6,3.1-0.2,4.7c0.4,1.5,1.2,3,2.3,4.1l33.6,32.8
			c1,1,1.7,2.2,2.2,3.5c0.4,1.3,0.5,2.7,0.3,4.1l-7.9,46.3c-0.3,1.6-0.1,3.2,0.5,4.7c0.6,1.5,1.6,2.8,2.9,3.7
			c1.3,0.9,2.8,1.5,4.4,1.6c1.6,0.1,3.2-0.2,4.6-1l41.5-21.9c1.2-0.6,2.6-1,4-1c1.4,0,2.8,0.3,4,1l41.5,21.9c1.4,0.7,3,1.1,4.6,1
			c1.6-0.1,3.1-0.7,4.4-1.6c1.3-0.9,2.3-2.2,2.9-3.7c0.6-1.5,0.8-3.1,0.5-4.7l-7.9-46.3c-0.2-1.4-0.1-2.8,0.3-4.1
			c0.4-1.3,1.2-2.5,2.2-3.5l33.6-32.8c1.1-1.1,1.9-2.5,2.3-4.1c0.4-1.5,0.3-3.2-0.2-4.7c-0.5-1.5-1.4-2.9-2.6-3.9
			c-1.2-1-2.7-1.7-4.3-1.9l-46.4-6.7c-1.4-0.2-2.7-0.7-3.8-1.6c-1.1-0.8-2-1.9-2.7-3.1l-20.8-42.1c-0.7-1.4-1.8-2.6-3.2-3.4
			c-1.3-0.8-2.9-1.3-4.5-1.3c0,0,0,0,0,0C302.6,153.4,301.1,153.9,299.7,154.7"/>
	</defs>
	<linearGradient id="SVGID_12_" gradientUnits="userSpaceOnUse" x1="215.5714" y1="238.1579" x2="392.8396" y2="238.1579">
		<stop  offset="1.612903e-002" style="stop-color:#A913EA"/>
		<stop  offset="0.2209" style="stop-color:#860EEE"/>
		<stop  offset="0.4564" style="stop-color:#565BF2"/>
		<stop  offset="0.738" style="stop-color:#309CF7"/>
		<stop  offset="0.9892" style="stop-color:#0DD7FC"/>
	</linearGradient>
	<use xlink:href="#SVGID_11_"  overflow="visible" fill="url(#SVGID_12_)"/>
	<clipPath id="SVGID_13_">
		<use xlink:href="#SVGID_11_"  overflow="visible"/>
	</clipPath>
	
		<linearGradient id="SVGID_14_" gradientUnits="userSpaceOnUse" x1="3.0531" y1="720.2286" x2="4.0886" y2="720.2286" gradientTransform="matrix(306.5479 119.5936 -119.5936 306.5479 85425.1563 -220941.8281)">
		<stop  offset="1.612903e-002" style="stop-color:#A913EA"/>
		<stop  offset="0.2209" style="stop-color:#860EEE"/>
		<stop  offset="0.4564" style="stop-color:#565BF2"/>
		<stop  offset="0.738" style="stop-color:#309CF7"/>
		<stop  offset="0.9892" style="stop-color:#0DD7FC"/>
	</linearGradient>
	<polygon clip-path="url(#SVGID_13_)" fill="url(#SVGID_14_)" points="158,300.6 369.5,383.1 450.4,175.8 238.9,93.3 	"/>
</g>
<path fill="#7788C4" d="M490.4,160.8c-0.6-2.5,1.7-4.8,4.2-4.1l17,4.8c2.5,0.7,3.3,3.9,1.5,5.7l-12.6,12.3c-1.9,1.8-5,0.9-5.7-1.6
	L490.4,160.8z"/>
<path fill="#7788C4" d="M64.6,395c-0.5-1.9,1.3-3.7,3.2-3.1l12.9,3.6c1.9,0.5,2.5,2.9,1.1,4.3l-9.6,9.4c-1.4,1.4-3.8,0.7-4.3-1.2
	L64.6,395z"/>
<circle fill="none" stroke="#848484" stroke-width="3.872" cx="297.5" cy="567.5" r="7.1"/>
<path fill="#848484" d="M530.7,375.2c0.3-1.3,2.2-1.3,2.5,0l1.1,4.5c0.1,0.5,0.5,0.8,1,1l4.5,1.1c1.3,0.3,1.3,2.2,0,2.5l-4.5,1.1
	c-0.5,0.1-0.8,0.5-1,1l-1.1,4.5c-0.3,1.3-2.2,1.3-2.5,0l-1.1-4.5c-0.1-0.5-0.5-0.8-1-1l-4.5-1.1c-1.3-0.3-1.3-2.2,0-2.5l4.5-1.1
	c0.5-0.1,0.8-0.5,1-1L530.7,375.2z"/>
<path fill="#848484" d="M84.2,168.7c0.5-2.2,3.7-2.2,4.3,0l1.8,7.5c0.2,0.8,0.8,1.4,1.6,1.6l7.5,1.8c2.2,0.5,2.2,3.7,0,4.3l-7.5,1.8
	c-0.8,0.2-1.4,0.8-1.6,1.6l-1.8,7.5c-0.5,2.2-3.7,2.2-4.3,0l-1.8-7.5c-0.2-0.8-0.8-1.4-1.6-1.6l-7.5-1.8c-2.2-0.5-2.2-3.7,0-4.3
	l7.5-1.8c0.8-0.2,1.4-0.8,1.6-1.6L84.2,168.7z"/>
<rect x="26.7" y="238.2" fill="none" width="396.1" height="419.4"/>
<rect x="31.6" y="32.6" fill="none" width="545.2" height="577.3"/>
<path fill="#FFFFFF" d="M173,329.6H23.2c0,0,6.2-23.6,23.8-21.1c17.6,2.5,14.8,12.4,27.1,5c12.4-7.4,13.8-48.4,49.5-16.1
	c0,0,15.2,7.8,29.5-12.2c14.3-20,52-6.9,54.3,37C208.2,335.8,173,329.6,173,329.6z"/>
<path fill="#FFFFFF" d="M380.6,419.6h134.8c0,0-5.6-12.1-21.4-10.8c-15.8,1.3-13.3,6.4-24.4,2.5c-11.1-3.8-12.4-24.9-44.5-8.3
	c0,0-13.7,4-26.6-6.3c-12.9-10.3-46.8-3.5-48.8,19C349,422.7,380.6,419.6,380.6,419.6z"/>
</svg>
