<?xml version="1.0" encoding="utf-8"?>
<!-- Generator: Adobe Illustrator 18.0.0, SVG Export Plug-In . SVG Version: 6.00 Build 0)  -->
<!DOCTYPE svg PUBLIC "-//W3C//DTD SVG 1.1//EN" "http://www.w3.org/Graphics/SVG/1.1/DTD/svg11.dtd">
<svg version="1.1" id="Layer_1" xmlns="http://www.w3.org/2000/svg" xmlns:xlink="http://www.w3.org/1999/xlink" x="0px" y="0px"
	 viewBox="0 0 600 600" enable-background="new 0 0 600 600" xml:space="preserve">
<linearGradient id="SVGID_1_" gradientUnits="userSpaceOnUse" x1="296.1579" y1="8.4134" x2="303.8317" y2="587.7876">
	<stop  offset="5.376344e-003" style="stop-color:#F0F0F0;stop-opacity:0.2"/>
	<stop  offset="0.1332" style="stop-color:#E3E3E3;stop-opacity:0.2"/>
	<stop  offset="0.717" style="stop-color:#ACACAC;stop-opacity:0.2"/>
	<stop  offset="1" style="stop-color:#969696;stop-opacity:0.2"/>
</linearGradient>
<path opacity="0.54" fill="url(#SVGID_1_)" d="M28.2,298.5c0,150.1,121.7,271.8,271.8,271.8c150.1,0,271.8-121.7,271.8-271.8
	c0-150.1-121.7-271.8-271.8-271.8C149.9,26.7,28.2,148.4,28.2,298.5"/>
<g>
	<defs>
		<rect id="SVGID_2_" x="28.2" y="-3.4" width="543.6" height="578.9"/>
	</defs>
	<clipPath id="SVGID_3_">
		<use xlink:href="#SVGID_2_"  overflow="visible"/>
	</clipPath>
	<path clip-path="url(#SVGID_3_)" fill="#AAAAAA" d="M360.9,345.9L258.4,210.1l-98.2,68.6c-9.3,6.5-11.2,19.3-4.4,28.3l63.3,82.6
		L360.9,345.9z"/>
	<path clip-path="url(#SVGID_3_)" fill="#AAAAAA" d="M360.9,345.9L258.4,210.1l79.9-53.1c9.5-6.3,22.2-3.7,28.6,5.7l63,93.4
		L360.9,345.9z"/>
</g>
<g>
	<defs>
		<path id="SVGID_4_" d="M429.9,256.1L429.9,256.1L429.9,256.1L429.9,256.1z M341.1,148.5l-127.6,25.8l79.1,117.1l31.1-59.6
			c3.5-6.6,9.8-11.4,17.1-13l56.1-11.9l-33.2-49.3c-4.2-6.1-11.1-9.7-18.3-9.7C344,148.1,342.5,148.3,341.1,148.5"/>
	</defs>
	<linearGradient id="SVGID_5_" gradientUnits="userSpaceOnUse" x1="213.4975" y1="219.8023" x2="429.951" y2="219.8023">
		<stop  offset="0" style="stop-color:#E0E0E0"/>
		<stop  offset="1" style="stop-color:#BFB9C1"/>
	</linearGradient>
	<use xlink:href="#SVGID_4_"  overflow="visible" fill="url(#SVGID_5_)"/>
	<clipPath id="SVGID_6_">
		<use xlink:href="#SVGID_4_"  overflow="visible"/>
	</clipPath>
	<linearGradient id="SVGID_7_" gradientUnits="userSpaceOnUse" x1="213.4975" y1="219.8024" x2="429.951" y2="219.8024">
		<stop  offset="0" style="stop-color:#E0E0E0"/>
		<stop  offset="1" style="stop-color:#BFB9C1"/>
	</linearGradient>
	<rect x="213.5" y="148.1" clip-path="url(#SVGID_6_)" fill="url(#SVGID_7_)" width="216.5" height="143.4"/>
</g>
<g>
	<defs>
		<path id="SVGID_8_" d="M219.2,389.6L219.2,389.6l3.5-4.6L219.2,389.6z M292.6,291.8L292.6,291.8l0.1,0L292.6,291.8z M437.1,198.5
			l-40.2,8.6l33,48.9l15.1-48.8c1.4-4.5-2.1-8.8-6.5-8.8C438.1,198.4,437.6,198.4,437.1,198.5 M151,277.7
			c-4.7,7.8-4.1,17.6,1.4,24.8l21.3,27.8l46.7-63.4c4.9-6.6,13.9-8.6,21-4.5l51,29.3l0.1-0.2l-79.1-117.1L151,277.7z"/>
	</defs>
	<linearGradient id="SVGID_9_" gradientUnits="userSpaceOnUse" x1="147.83" y1="282.0026" x2="445.3709" y2="282.0026">
		<stop  offset="0" style="stop-color:#E0E0E0"/>
		<stop  offset="1" style="stop-color:#BFB9C1"/>
	</linearGradient>
	<use xlink:href="#SVGID_8_"  overflow="visible" fill="url(#SVGID_9_)"/>
	<clipPath id="SVGID_10_">
		<use xlink:href="#SVGID_8_"  overflow="visible"/>
	</clipPath>
	<linearGradient id="SVGID_11_" gradientUnits="userSpaceOnUse" x1="146.3218" y1="282.0027" x2="446.4629" y2="282.0027">
		<stop  offset="0" style="stop-color:#E0E0E0"/>
		<stop  offset="1" style="stop-color:#BFB9C1"/>
	</linearGradient>
	<rect x="146.3" y="174.4" clip-path="url(#SVGID_10_)" fill="url(#SVGID_11_)" width="300.1" height="215.3"/>
</g>
<g>
	<defs>
		<rect id="SVGID_12_" x="28.2" y="-3.4" width="543.6" height="578.9"/>
	</defs>
	<clipPath id="SVGID_13_">
		<use xlink:href="#SVGID_12_"  overflow="visible"/>
	</clipPath>
	<polygon clip-path="url(#SVGID_13_)" fill="#FE506B" points="292.7,291.8 429.9,256.1 292.7,291.7 	"/>
	<path clip-path="url(#SVGID_13_)" fill="#CAC134" d="M340.8,219c-7.4,1.6-13.6,6.3-17.1,13l-31.2,59.6l0.1,0.2l137.2-35.6V256
		l-33-49L340.8,219z"/>
</g>
<g>
	<defs>
		<path id="SVGID_14_" d="M340.8,219c-7.4,1.6-13.6,6.3-17.1,13l-31.2,59.6l0.1,0.2l137.2-35.6V256l-33-49L340.8,219z"/>
	</defs>
	<linearGradient id="SVGID_15_" gradientUnits="userSpaceOnUse" x1="292.5239" y1="249.3728" x2="429.8622" y2="249.3728">
		<stop  offset="0" style="stop-color:#E0E0E0"/>
		<stop  offset="1" style="stop-color:#BFB9C1"/>
	</linearGradient>
	<use xlink:href="#SVGID_14_"  overflow="visible" fill="url(#SVGID_15_)"/>
	<clipPath id="SVGID_16_">
		<use xlink:href="#SVGID_14_"  overflow="visible"/>
	</clipPath>
	
		<linearGradient id="SVGID_17_" gradientUnits="userSpaceOnUse" x1="-0.938" y1="719.1552" x2="0.4277" y2="719.1552" gradientTransform="matrix(0 62.005 -62.005 0 44952.4141 265.1945)">
		<stop  offset="0" style="stop-color:#E0E0E0"/>
		<stop  offset="1" style="stop-color:#BFB9C1"/>
	</linearGradient>
	<rect x="292.5" y="207" clip-path="url(#SVGID_16_)" fill="url(#SVGID_17_)" width="137.3" height="84.7"/>
</g>
<g>
	<defs>
		<rect id="SVGID_18_" x="28.2" y="-3.4" width="543.6" height="578.9"/>
	</defs>
	<clipPath id="SVGID_19_">
		<use xlink:href="#SVGID_18_"  overflow="visible"/>
	</clipPath>
	<polygon clip-path="url(#SVGID_19_)" fill="#FFBA3B" points="292.6,291.5 292.4,291.7 292.6,291.8 292.7,291.8 292.7,291.7 	"/>
	<polygon clip-path="url(#SVGID_19_)" fill="#FE506B" points="292.6,291.5 292.4,291.7 292.6,291.8 292.7,291.8 292.7,291.7 	"/>
</g>
<g>
	<defs>
		<path id="SVGID_20_" d="M163.1,344.5c-4.3,5.8-2.4,14,4,17.4l52,27.8v0l-45.5-59.3L163.1,344.5z"/>
	</defs>
	<linearGradient id="SVGID_21_" gradientUnits="userSpaceOnUse" x1="160.8094" y1="359.9377" x2="219.1108" y2="359.9377">
		<stop  offset="0" style="stop-color:#E0E0E0"/>
		<stop  offset="1" style="stop-color:#BFB9C1"/>
	</linearGradient>
	<use xlink:href="#SVGID_20_"  overflow="visible" fill="url(#SVGID_21_)"/>
	<clipPath id="SVGID_22_">
		<use xlink:href="#SVGID_20_"  overflow="visible"/>
	</clipPath>
	
		<linearGradient id="SVGID_23_" gradientUnits="userSpaceOnUse" x1="-1.8571" y1="719.4465" x2="-0.4913" y2="719.4465" gradientTransform="matrix(0 43.479 -43.479 0 31469.791 410.9915)">
		<stop  offset="0" style="stop-color:#E0E0E0"/>
		<stop  offset="1" style="stop-color:#BFB9C1"/>
	</linearGradient>
	<rect x="158.8" y="330.2" clip-path="url(#SVGID_22_)" fill="url(#SVGID_23_)" width="60.3" height="59.4"/>
</g>
<g>
	<defs>
		<rect id="SVGID_24_" x="28.2" y="-3.4" width="543.6" height="578.9"/>
	</defs>
	<clipPath id="SVGID_25_">
		<use xlink:href="#SVGID_24_"  overflow="visible"/>
	</clipPath>
	<polygon clip-path="url(#SVGID_25_)" fill="#FE506B" points="292.8,291.9 292.6,291.8 222.6,385 	"/>
</g>
<g>
	<defs>
		<path id="SVGID_26_" d="M220.9,266.9l-46.8,63.4l45.5,59.3l3.5-4.6l70-93.1l-0.1,0l-0.1,0.1l0-0.1l-51-29.3
			c-2.5-1.5-5.3-2.1-8-2.1C228.9,260.3,224.1,262.6,220.9,266.9"/>
	</defs>
	<linearGradient id="SVGID_27_" gradientUnits="userSpaceOnUse" x1="174.1648" y1="324.9848" x2="293.1489" y2="324.9848">
		<stop  offset="0" style="stop-color:#E0E0E0"/>
		<stop  offset="1" style="stop-color:#BFB9C1"/>
	</linearGradient>
	<use xlink:href="#SVGID_26_"  overflow="visible" fill="url(#SVGID_27_)"/>
	<clipPath id="SVGID_28_">
		<use xlink:href="#SVGID_26_"  overflow="visible"/>
	</clipPath>
	
		<linearGradient id="SVGID_29_" gradientUnits="userSpaceOnUse" x1="0.5717" y1="720.1483" x2="1.9375" y2="720.1483" gradientTransform="matrix(0 94.6644 -94.6644 0 68406.0703 206.2169)">
		<stop  offset="0" style="stop-color:#E0E0E0"/>
		<stop  offset="1" style="stop-color:#BFB9C1"/>
	</linearGradient>
	<rect x="174.2" y="260.3" clip-path="url(#SVGID_28_)" fill="url(#SVGID_29_)" width="119" height="129.3"/>
</g>
<g>
	<defs>
		<rect id="SVGID_30_" x="28.2" y="-3.4" width="543.6" height="578.9"/>
	</defs>
	<clipPath id="SVGID_31_">
		<use xlink:href="#SVGID_30_"  overflow="visible"/>
	</clipPath>
	<polygon clip-path="url(#SVGID_31_)" fill="#FFBA3B" points="292.6,291.8 292.4,291.7 292.4,291.8 	"/>
	<polygon clip-path="url(#SVGID_31_)" fill="#FE506B" points="292.6,291.8 292.4,291.7 292.4,291.8 	"/>
	<polygon clip-path="url(#SVGID_31_)" fill="#FE506B" points="292.6,291.8 292.4,291.7 292.4,291.8 	"/>
</g>
<g>
	<defs>
		<path id="SVGID_32_" d="M219.2,389.6l-4.6,44.3c-0.7,6.7,5.8,11.9,12.3,9.7l111.5-37.3c8.3-2.9,14.5-9.8,16.4-18.2l6.2-42.2
			L219.2,389.6z"/>
	</defs>
	<linearGradient id="SVGID_33_" gradientUnits="userSpaceOnUse" x1="214.5182" y1="395.0495" x2="360.9479" y2="395.0495">
		<stop  offset="0" style="stop-color:#E0E0E0"/>
		<stop  offset="1" style="stop-color:#BFB9C1"/>
	</linearGradient>
	<use xlink:href="#SVGID_32_"  overflow="visible" fill="url(#SVGID_33_)"/>
	<clipPath id="SVGID_34_">
		<use xlink:href="#SVGID_32_"  overflow="visible"/>
	</clipPath>
	<defs>
		<filter id="Adobe_OpacityMaskFilter" filterUnits="userSpaceOnUse" x="213.9" y="345.9" width="147.1" height="99.9">
			<feColorMatrix  type="matrix" values="1 0 0 0 0  0 1 0 0 0  0 0 1 0 0  0 0 0 1 0"/>
		</filter>
	</defs>
	<mask maskUnits="userSpaceOnUse" x="213.9" y="345.9" width="147.1" height="99.9" id="SVGID_35_">
		<g filter="url(#Adobe_OpacityMaskFilter)">
			
				<linearGradient id="SVGID_36_" gradientUnits="userSpaceOnUse" x1="0.1226" y1="719.6876" x2="1.4883" y2="719.6876" gradientTransform="matrix(0 71.9332 -71.9332 0 52056.8438 337.1099)">
				<stop  offset="0" style="stop-color:#FFFFFF"/>
				<stop  offset="1" style="stop-color:#000000"/>
			</linearGradient>
			<rect x="213.9" y="345.9" clip-path="url(#SVGID_34_)" fill="url(#SVGID_36_)" width="147.1" height="99.9"/>
		</g>
	</mask>
	
		<linearGradient id="SVGID_37_" gradientUnits="userSpaceOnUse" x1="0.1226" y1="719.6876" x2="1.4883" y2="719.6876" gradientTransform="matrix(0 71.9332 -71.9332 0 52056.8477 337.1099)">
		<stop  offset="0" style="stop-color:#E0E0E0"/>
		<stop  offset="1" style="stop-color:#BFB9C1"/>
	</linearGradient>
	
		<rect x="213.9" y="345.9" clip-path="url(#SVGID_34_)" mask="url(#SVGID_35_)" fill="url(#SVGID_37_)" width="147.1" height="99.9"/>
</g>
<g>
	<defs>
		<path id="SVGID_38_" d="M448.7,247.3l-18.8,8.8l-69,89.9l33.6-29c4.1-3.1,7.8-6.6,11-10.6l47.1-54.1c1.8-2.3,0-5.2-2.5-5.2
			C449.6,247,449.2,247.1,448.7,247.3"/>
	</defs>
	<linearGradient id="SVGID_39_" gradientUnits="userSpaceOnUse" x1="360.8592" y1="296.5144" x2="453.31" y2="296.5144">
		<stop  offset="0" style="stop-color:#E0E0E0"/>
		<stop  offset="1" style="stop-color:#BFB9C1"/>
	</linearGradient>
	<use xlink:href="#SVGID_38_"  overflow="visible" fill="url(#SVGID_39_)"/>
	<clipPath id="SVGID_40_">
		<use xlink:href="#SVGID_38_"  overflow="visible"/>
	</clipPath>
	
		<linearGradient id="SVGID_41_" gradientUnits="userSpaceOnUse" x1="-0.2207" y1="719.2451" x2="1.1451" y2="719.2451" gradientTransform="matrix(0 72.4916 -72.4916 0 52546.8398 263.0081)">
		<stop  offset="0" style="stop-color:#E0E0E0"/>
		<stop  offset="1" style="stop-color:#BFB9C1"/>
	</linearGradient>
	<rect x="360.9" y="247" clip-path="url(#SVGID_40_)" fill="url(#SVGID_41_)" width="93.5" height="99"/>
</g>
<g>
	<defs>
		<rect id="SVGID_42_" x="28.2" y="-3.4" width="543.6" height="578.9"/>
	</defs>
	<clipPath id="SVGID_43_">
		<use xlink:href="#SVGID_42_"  overflow="visible"/>
	</clipPath>
</g>
<g>
	<defs>
		<path id="SVGID_44_" d="M366.9,285.9c-6.9,2.7-13.1,6.5-18.5,11.3c-5.4,4.9-9.6,10.5-12.5,16.8c-3,6.5-4.6,13.5-4.6,20.7
			c0,14.8,6.8,28.9,18.7,38.9c-3.8,5-9.3,9.5-17.5,14.4c-0.5,0.3-0.9,0.8-1.1,1.3c-0.2,0.5-0.2,1.1-0.1,1.7c0.2,0.6,0.5,1,0.9,1.4
			c0.5,0.4,1,0.5,1.6,0.5c8.1,0,15.5-0.8,22-2.4c5.6-1.3,10.6-3.3,14.8-5.7c6.1,1.9,12.4,2.8,18.7,2.8c7.8,0,15.4-1.4,22.6-4.1
			c6.9-2.6,13.1-6.4,18.5-11.3c5.4-4.9,9.6-10.5,12.5-16.8c3-6.5,4.6-13.5,4.6-20.7c0-7.2-1.6-14.2-4.6-20.7
			c-2.9-6.3-7.2-12-12.5-16.8c-5.3-4.8-11.6-8.6-18.5-11.3c-7.2-2.7-14.7-4.1-22.6-4.1C381.6,281.8,374,283.2,366.9,285.9"/>
	</defs>
	<linearGradient id="SVGID_45_" gradientUnits="userSpaceOnUse" x1="355.204" y1="337.3326" x2="425.5678" y2="337.3326">
		<stop  offset="1.612903e-002" style="stop-color:#A913EA"/>
		<stop  offset="0.2209" style="stop-color:#860EEE"/>
		<stop  offset="0.4564" style="stop-color:#565BF2"/>
		<stop  offset="0.738" style="stop-color:#309CF7"/>
		<stop  offset="0.9892" style="stop-color:#0DD7FC"/>
	</linearGradient>
	<use xlink:href="#SVGID_44_"  overflow="visible" fill="url(#SVGID_45_)"/>
	<clipPath id="SVGID_46_">
		<use xlink:href="#SVGID_44_"  overflow="visible"/>
	</clipPath>
	
		<linearGradient id="SVGID_47_" gradientUnits="userSpaceOnUse" x1="1.0793" y1="717.819" x2="2.445" y2="717.819" gradientTransform="matrix(34.5 59.125 -59.125 34.5 42770.293 -24530.5176)">
		<stop  offset="1.612903e-002" style="stop-color:#A913EA"/>
		<stop  offset="0.2209" style="stop-color:#860EEE"/>
		<stop  offset="0.4564" style="stop-color:#565BF2"/>
		<stop  offset="0.738" style="stop-color:#309CF7"/>
		<stop  offset="0.9892" style="stop-color:#0DD7FC"/>
	</linearGradient>
	<polygon clip-path="url(#SVGID_46_)" fill="url(#SVGID_47_)" points="282.8,310 360.7,443.6 496,364.7 418.1,231.1 	"/>
</g>
<path fill="#FFFFFF" d="M383.9,343.8h8.2c-1-8.7,12.8-9.8,12.8-19c0-8.4-6.7-12.6-15.8-12.6c-6.7,0-12.3,3.1-16.3,7.7l5.2,4.7
	c3.1-3.2,6.2-5,10.1-5c5,0,8,2.1,8,6C396,331.7,382.6,333.9,383.9,343.8 M388.1,360.6c3.1,0,5.5-2.3,5.5-5.6c0-3.3-2.4-5.5-5.5-5.5
	c-3.2,0-5.6,2.3-5.6,5.5C382.5,358.3,384.8,360.6,388.1,360.6"/>
<circle fill="none" stroke="#7788C4" stroke-width="3.3983" cx="485.4" cy="89.3" r="8.4"/>
<circle fill="none" stroke="#7788C4" stroke-width="2.3642" cx="353.6" cy="566.9" r="5.9"/>
<rect x="28.2" y="-3.4" fill="none" width="543.6" height="578.9"/>
<polygon fill="#7788C4" points="367.8,416.4 369.6,421.4 374.7,423.3 369.6,425.1 367.8,430.2 365.9,425.1 360.9,423.3 365.9,421.4 
	"/>
<polygon fill="#848484" points="93,449.5 97.2,460.7 108.4,464.8 97.2,469 93,480.2 88.9,469 77.7,464.8 88.9,460.7 "/>
<polygon fill="#7788C4" points="173.6,124.3 176.8,133 185.5,136.2 176.8,139.4 173.6,148.1 170.4,139.4 161.7,136.2 170.4,133 "/>
<rect x="43.9" y="162.6" fill="none" width="328" height="349.4"/>
<rect x="28.2" y="-3.4" fill="none" width="543.6" height="578.9"/>
</svg>
