<?xml version="1.0" encoding="utf-8"?>
<!-- Generator: Adobe Illustrator 18.0.0, SVG Export Plug-In . SVG Version: 6.00 Build 0)  -->
<!DOCTYPE svg PUBLIC "-//W3C//DTD SVG 1.1//EN" "http://www.w3.org/Graphics/SVG/1.1/DTD/svg11.dtd">
<svg version="1.1" id="Layer_1" xmlns="http://www.w3.org/2000/svg" xmlns:xlink="http://www.w3.org/1999/xlink" x="0px" y="0px"
	 viewBox="0 0 600 600" enable-background="new 0 0 600 600" xml:space="preserve">
<linearGradient id="SVGID_1_" gradientUnits="userSpaceOnUse" x1="-2181.4392" y1="-2292.8271" x2="-1615.8741" y2="-2292.8271" gradientTransform="matrix(9.706947e-002 0.9953 -0.9953 9.706947e-002 -1789.4429 2411.8733)">
	<stop  offset="0" style="stop-color:#DEDEDE;stop-opacity:0.2"/>
	<stop  offset="0.3634" style="stop-color:#ABABAB;stop-opacity:0.2"/>
	<stop  offset="0.792" style="stop-color:#747474;stop-opacity:0.2"/>
	<stop  offset="1" style="stop-color:#5E5E5E;stop-opacity:0.2"/>
</linearGradient>
<path opacity="0.54" fill="url(#SVGID_1_)" d="M282.5,36C136.7,50.2,30,179.9,44.3,325.8C58.5,471.6,188.2,578.3,334,564
	c145.8-14.2,252.5-144,238.3-289.8C558.1,128.4,428.4,21.7,282.5,36"/>
<ellipse fill="none" stroke="#A7A9AC" stroke-width="4.0546" cx="139.6" cy="148.6" rx="10.4" ry="9.7"/>
<rect x="48.5" y="48.1" fill="none" width="508.1" height="560.4"/>
<g>
	<defs>
		<rect id="SVGID_2_" x="157.8" y="449.8" width="135.9" height="135.9"/>
	</defs>
	<clipPath id="SVGID_3_">
		<use xlink:href="#SVGID_2_"  overflow="visible"/>
	</clipPath>
</g>
<path fill="#7788C4" d="M459.9,92.2c1.6,0.4,2.2,2.5,1,3.7l-8,8c-1.2,1.2-3.2,0.6-3.7-1l-2.9-11c-0.4-1.6,1.1-3.1,2.7-2.7
	L459.9,92.2z"/>
<path fill="#848484" d="M56.2,332.1c1.6,0.4,2.2,2.5,1,3.7l-8,8c-1.2,1.2-3.2,0.6-3.7-1l-2.9-11c-0.4-1.6,1.1-3.1,2.7-2.7
	L56.2,332.1z"/>
<rect x="48.5" y="48.1" fill="none" width="508.1" height="560.4"/>
<ellipse fill="none" stroke="#7788C4" stroke-width="3.8743" cx="533.5" cy="300" rx="7.8" ry="7.9"/>
<polygon fill="#7788C4" points="225.8,511.7 229.1,520.7 238.1,524 229.1,527.4 225.8,536.4 222.5,527.4 213.5,524 222.5,520.7 "/>
<rect x="71.7" y="76.4" fill="none" width="461.8" height="509.3"/>
<g opacity="0.74">
	<defs>
		<path id="SVGID_4_" opacity="0.74" d="M188.3,266.7c-12.8,0-23.2,10.4-23.2,23.2v34.8c0,12.8,10.4,23.2,23.2,23.2H418
			c12.8,0,23.2-10.4,23.2-23.2v-34.8c0-12.8-10.4-23.2-23.2-23.2H188.3z"/>
	</defs>
	<linearGradient id="SVGID_5_" gradientUnits="userSpaceOnUse" x1="165.0604" y1="307.2845" x2="441.2" y2="307.2845">
		<stop  offset="0" style="stop-color:#E0E0E0"/>
		<stop  offset="1" style="stop-color:#BFB9C1"/>
	</linearGradient>
	<use xlink:href="#SVGID_4_"  overflow="visible" fill="url(#SVGID_5_)"/>
	<clipPath id="SVGID_6_">
		<use xlink:href="#SVGID_4_"  overflow="visible"/>
	</clipPath>
	
		<linearGradient id="SVGID_7_" gradientUnits="userSpaceOnUse" x1="0.4377" y1="719.5622" x2="1.5979" y2="719.5622" gradientTransform="matrix(0 70 -70 0 50672.4844 236.04)">
		<stop  offset="0" style="stop-color:#E0E0E0"/>
		<stop  offset="1" style="stop-color:#BFB9C1"/>
	</linearGradient>
	<rect x="165.1" y="266.7" clip-path="url(#SVGID_6_)" fill="url(#SVGID_7_)" width="276.1" height="81.2"/>
</g>
<g opacity="0.74">
	<defs>
		<path id="SVGID_8_" opacity="0.74" d="M185.1,365.7c-12.8,0-23.2,10.4-23.2,23.2v34.8c0,12.8,10.4,23.2,23.2,23.2h229.7
			c12.8,0,23.2-10.4,23.2-23.2v-34.8c0-12.8-10.4-23.2-23.2-23.2H185.1z"/>
	</defs>
	<linearGradient id="SVGID_9_" gradientUnits="userSpaceOnUse" x1="161.9303" y1="406.2845" x2="438.0698" y2="406.2845">
		<stop  offset="0" style="stop-color:#E0E0E0"/>
		<stop  offset="1" style="stop-color:#BFB9C1"/>
	</linearGradient>
	<use xlink:href="#SVGID_8_"  overflow="visible" fill="url(#SVGID_9_)"/>
	<clipPath id="SVGID_10_">
		<use xlink:href="#SVGID_8_"  overflow="visible"/>
	</clipPath>
	
		<linearGradient id="SVGID_11_" gradientUnits="userSpaceOnUse" x1="1.8519" y1="719.6069" x2="3.0122" y2="719.6069" gradientTransform="matrix(0 70 -70 0 50672.4844 236.04)">
		<stop  offset="0" style="stop-color:#E0E0E0"/>
		<stop  offset="1" style="stop-color:#BFB9C1"/>
	</linearGradient>
	<rect x="161.9" y="365.7" clip-path="url(#SVGID_10_)" fill="url(#SVGID_11_)" width="276.1" height="81.2"/>
</g>
<g>
	<defs>
		<rect id="SVGID_12_" x="71.7" y="76.4" width="461.8" height="509.3"/>
	</defs>
	<clipPath id="SVGID_13_">
		<use xlink:href="#SVGID_12_"  overflow="visible"/>
	</clipPath>
	<path clip-path="url(#SVGID_13_)" fill="#FFFFFF" d="M199.3,295.7c6.1,0,11,4.9,11,11c0,6.1-4.9,11-11,11s-11-4.9-11-11
		C188.3,300.6,193.2,295.7,199.3,295.7"/>
</g>
<g>
	<defs>
		<path id="SVGID_14_" d="M231.2,296.8c-5.8,0-10.4,4.7-10.4,10.4c0,5.8,4.7,10.4,10.4,10.4h127.6c5.8,0,10.4-4.7,10.4-10.4
			c0-5.8-4.7-10.4-10.4-10.4H231.2z"/>
	</defs>
	<clipPath id="SVGID_15_">
		<use xlink:href="#SVGID_14_"  overflow="visible"/>
	</clipPath>
	<defs>
		<filter id="Adobe_OpacityMaskFilter" filterUnits="userSpaceOnUse" x="220.7" y="296.3" width="148.7" height="22">
			<feColorMatrix  type="matrix" values="1 0 0 0 0  0 1 0 0 0  0 0 1 0 0  0 0 0 1 0"/>
		</filter>
	</defs>
	<mask maskUnits="userSpaceOnUse" x="220.7" y="296.3" width="148.7" height="22" id="SVGID_16_">
		<g filter="url(#Adobe_OpacityMaskFilter)">
			
				<linearGradient id="SVGID_17_" gradientUnits="userSpaceOnUse" x1="3.6918" y1="719.6395" x2="4.8527" y2="719.6395" gradientTransform="matrix(127.9982 0.5 -0.5 127.9982 107.9852 -91807.3984)">
				<stop  offset="0" style="stop-color:#FFFFFF"/>
				<stop  offset="1" style="stop-color:#000000"/>
			</linearGradient>
			<polygon clip-path="url(#SVGID_15_)" fill="url(#SVGID_17_)" points="220.7,317.7 369.3,318.3 369.3,296.8 220.8,296.3 			"/>
		</g>
	</mask>
	
		<linearGradient id="SVGID_18_" gradientUnits="userSpaceOnUse" x1="3.6918" y1="719.6395" x2="4.8527" y2="719.6395" gradientTransform="matrix(127.9982 0.5 -0.5 127.9982 107.9852 -91807.3984)">
		<stop  offset="0" style="stop-color:#FFFFFF"/>
		<stop  offset="1" style="stop-color:#FFFFFF"/>
	</linearGradient>
	<polygon clip-path="url(#SVGID_15_)" mask="url(#SVGID_16_)" fill="url(#SVGID_18_)" points="220.7,317.7 369.3,318.3 369.3,296.8 
		220.8,296.3 	"/>
</g>
<g>
	<defs>
		<rect id="SVGID_19_" x="71.7" y="76.4" width="461.8" height="509.3"/>
	</defs>
	<clipPath id="SVGID_20_">
		<use xlink:href="#SVGID_19_"  overflow="visible"/>
	</clipPath>
	<path clip-path="url(#SVGID_20_)" fill="#FFFFFF" d="M199.3,396.6c6.1,0,11,4.9,11,11s-4.9,11-11,11s-11-4.9-11-11
		S193.2,396.6,199.3,396.6"/>
</g>
<g>
	<defs>
		<path id="SVGID_21_" d="M231.2,397.8c-5.8,0-10.4,4.7-10.4,10.4c0,5.8,4.7,10.4,10.4,10.4h127.6c5.8,0,10.4-4.7,10.4-10.4
			c0-5.8-4.7-10.4-10.4-10.4H231.2z"/>
	</defs>
	<clipPath id="SVGID_22_">
		<use xlink:href="#SVGID_21_"  overflow="visible"/>
	</clipPath>
	<defs>
		<filter id="Adobe_OpacityMaskFilter_1_" filterUnits="userSpaceOnUse" x="220.6" y="396.6" width="148.8" height="23.2">
			<feColorMatrix  type="matrix" values="1 0 0 0 0  0 1 0 0 0  0 0 1 0 0  0 0 0 1 0"/>
		</filter>
	</defs>
	<mask maskUnits="userSpaceOnUse" x="220.6" y="396.6" width="148.8" height="23.2" id="SVGID_23_">
		<g filter="url(#Adobe_OpacityMaskFilter_1_)">
			
				<linearGradient id="SVGID_24_" gradientUnits="userSpaceOnUse" x1="3.6975" y1="719.7305" x2="4.8578" y2="719.7305" gradientTransform="matrix(126.5 1 -1 126.5 474.4799 -90641.9453)">
				<stop  offset="0" style="stop-color:#FFFFFF"/>
				<stop  offset="1" style="stop-color:#000000"/>
			</linearGradient>
			<polygon clip-path="url(#SVGID_22_)" fill="url(#SVGID_24_)" points="220.6,418.7 369.3,419.8 369.4,397.8 220.8,396.6 			"/>
		</g>
	</mask>
	
		<linearGradient id="SVGID_25_" gradientUnits="userSpaceOnUse" x1="3.6975" y1="719.7305" x2="4.8578" y2="719.7305" gradientTransform="matrix(126.5 1 -1 126.5 474.4799 -90641.9531)">
		<stop  offset="0" style="stop-color:#FFFFFF"/>
		<stop  offset="1" style="stop-color:#FFFFFF"/>
	</linearGradient>
	<polygon clip-path="url(#SVGID_22_)" mask="url(#SVGID_23_)" fill="url(#SVGID_25_)" points="220.6,418.7 369.3,419.8 369.4,397.8 
		220.8,396.6 	"/>
</g>
<g opacity="0.74">
	<defs>
		<path id="SVGID_26_" opacity="0.74" d="M188.3,165.7c-12.8,0-23.2,10.4-23.2,23.2v34.8c0,12.8,10.4,23.2,23.2,23.2H418
			c12.8,0,23.2-10.4,23.2-23.2v-34.8c0-12.8-10.4-23.2-23.2-23.2H188.3z"/>
	</defs>
	<linearGradient id="SVGID_27_" gradientUnits="userSpaceOnUse" x1="165.0604" y1="206.3428" x2="441.2" y2="206.3428">
		<stop  offset="0" style="stop-color:#E0E0E0"/>
		<stop  offset="1" style="stop-color:#BFB9C1"/>
	</linearGradient>
	<use xlink:href="#SVGID_26_"  overflow="visible" fill="url(#SVGID_27_)"/>
	<clipPath id="SVGID_28_">
		<use xlink:href="#SVGID_26_"  overflow="visible"/>
	</clipPath>
	
		<linearGradient id="SVGID_29_" gradientUnits="userSpaceOnUse" x1="0.2385" y1="719.5622" x2="1.3987" y2="719.5622" gradientTransform="matrix(0 70 -70 0 50672.4844 149.04)">
		<stop  offset="0" style="stop-color:#E0E0E0"/>
		<stop  offset="1" style="stop-color:#BFB9C1"/>
	</linearGradient>
	<rect x="165.1" y="165.7" clip-path="url(#SVGID_28_)" fill="url(#SVGID_29_)" width="276.1" height="81.2"/>
</g>
<g>
	<defs>
		<rect id="SVGID_30_" x="71.7" y="76.4" width="461.8" height="509.3"/>
	</defs>
	<clipPath id="SVGID_31_">
		<use xlink:href="#SVGID_30_"  overflow="visible"/>
	</clipPath>
	<path clip-path="url(#SVGID_31_)" fill="#FFFFFF" d="M199.3,194.7c6.1,0,11,4.9,11,11c0,6.1-4.9,11-11,11s-11-4.9-11-11
		C188.3,199.7,193.2,194.7,199.3,194.7"/>
</g>
<g>
	<defs>
		<path id="SVGID_32_" d="M231.2,195.9c-5.8,0-10.4,4.7-10.4,10.4c0,5.8,4.7,10.4,10.4,10.4h127.6c5.8,0,10.4-4.7,10.4-10.4
			c0-5.8-4.7-10.4-10.4-10.4H231.2z"/>
	</defs>
	<clipPath id="SVGID_33_">
		<use xlink:href="#SVGID_32_"  overflow="visible"/>
	</clipPath>
	<defs>
		<filter id="Adobe_OpacityMaskFilter_2_" filterUnits="userSpaceOnUse" x="220.8" y="195.9" width="148.5" height="20.9">
			<feColorMatrix  type="matrix" values="1 0 0 0 0  0 1 0 0 0  0 0 1 0 0  0 0 0 1 0"/>
		</filter>
	</defs>
	<mask maskUnits="userSpaceOnUse" x="220.8" y="195.9" width="148.5" height="20.9" id="SVGID_34_">
		<g filter="url(#Adobe_OpacityMaskFilter_2_)">
			
				<linearGradient id="SVGID_35_" gradientUnits="userSpaceOnUse" x1="3.8838" y1="719.1416" x2="5.0441" y2="719.1416" gradientTransform="matrix(101 0 0 101 -171.516 -72426.9609)">
				<stop  offset="0" style="stop-color:#FFFFFF"/>
				<stop  offset="1" style="stop-color:#000000"/>
			</linearGradient>
			<rect x="220.8" y="195.9" clip-path="url(#SVGID_33_)" fill="url(#SVGID_35_)" width="148.5" height="20.9"/>
		</g>
	</mask>
	
		<linearGradient id="SVGID_36_" gradientUnits="userSpaceOnUse" x1="3.8838" y1="719.1416" x2="5.0441" y2="719.1416" gradientTransform="matrix(101 0 0 101 -171.516 -72426.9609)">
		<stop  offset="0" style="stop-color:#FFFFFF"/>
		<stop  offset="1" style="stop-color:#FFFFFF"/>
	</linearGradient>
	
		<rect x="220.8" y="195.9" clip-path="url(#SVGID_33_)" mask="url(#SVGID_34_)" fill="url(#SVGID_36_)" width="148.5" height="20.9"/>
</g>
<g>
	<defs>
		<rect id="SVGID_37_" x="71.7" y="76.4" width="461.8" height="509.3"/>
	</defs>
	<clipPath id="SVGID_38_">
		<use xlink:href="#SVGID_37_"  overflow="visible"/>
	</clipPath>
	<linearGradient id="SVGID_39_" gradientUnits="userSpaceOnUse" x1="369.2646" y1="346.8653" x2="457.7081" y2="346.8653">
		<stop  offset="1.612903e-002" style="stop-color:#A913EA"/>
		<stop  offset="0.2209" style="stop-color:#860EEE"/>
		<stop  offset="0.4564" style="stop-color:#565BF2"/>
		<stop  offset="0.738" style="stop-color:#309CF7"/>
		<stop  offset="0.9892" style="stop-color:#0DD7FC"/>
	</linearGradient>
	<path clip-path="url(#SVGID_38_)" fill="url(#SVGID_39_)" d="M413.5,302.6c24.4,0,44.2,19.8,44.2,44.2c0,24.4-19.8,44.2-44.2,44.2
		c-24.4,0-44.2-19.8-44.2-44.2C369.3,322.4,389.1,302.6,413.5,302.6"/>
	<path clip-path="url(#SVGID_38_)" fill="#FFFFFF" d="M410.3,352.7h6l1.5-19.8l0.3-8.6h-9.6l0.3,8.6L410.3,352.7z M413.4,368.2
		c2.9,0,5.1-2.1,5.1-5.2c0-3-2.2-5.1-5.1-5.1c-3,0-5.2,2.1-5.2,5.1C408.2,366.1,410.3,368.2,413.4,368.2"/>
</g>
<rect x="71.7" y="76.4" fill="none" width="461.8" height="509.3"/>
<polygon fill="#7788C4" points="541.3,411.9 543.1,416.8 548,418.7 543.1,420.5 541.3,425.4 539.5,420.5 534.5,418.7 539.5,416.8 
	"/>
</svg>
