<?xml version="1.0" encoding="utf-8"?>
<!-- Generator: Adobe Illustrator 18.0.0, SVG Export Plug-In . SVG Version: 6.00 Build 0)  -->
<!DOCTYPE svg PUBLIC "-//W3C//DTD SVG 1.1//EN" "http://www.w3.org/Graphics/SVG/1.1/DTD/svg11.dtd">
<svg version="1.1" id="Layer_1" xmlns="http://www.w3.org/2000/svg" xmlns:xlink="http://www.w3.org/1999/xlink" x="0px" y="0px"
	 viewBox="0 0 600 600" enable-background="new 0 0 600 600" xml:space="preserve">
<rect x="-221.4" y="-100.6" fill="none" width="1042.7" height="863.3"/>
<linearGradient id="SVGID_1_" gradientUnits="userSpaceOnUse" x1="294.3198" y1="77.2993" x2="301.0329" y2="584.1324">
	<stop  offset="5.376344e-003" style="stop-color:#F0F0F0;stop-opacity:0.2"/>
	<stop  offset="0.1332" style="stop-color:#E3E3E3;stop-opacity:0.2"/>
	<stop  offset="0.717" style="stop-color:#ACACAC;stop-opacity:0.2"/>
	<stop  offset="1" style="stop-color:#969696;stop-opacity:0.2"/>
</linearGradient>
<path opacity="0.54" fill="url(#SVGID_1_)" d="M59.9,331.1c0,131.3,106.4,237.8,237.8,237.8c131.3,0,237.8-106.4,237.8-237.8
	c0-131.3-106.4-237.8-237.8-237.8C166.4,93.3,59.9,199.8,59.9,331.1"/>
<g>
	<defs>
		<rect id="SVGID_2_" x="430.6" y="276.4" width="36.3" height="178.1"/>
	</defs>
	<linearGradient id="SVGID_3_" gradientUnits="userSpaceOnUse" x1="430.572" y1="365.3991" x2="466.8818" y2="365.3991">
		<stop  offset="0" style="stop-color:#EBEBEB"/>
		<stop  offset="1" style="stop-color:#BFB9C1"/>
	</linearGradient>
	<use xlink:href="#SVGID_2_"  overflow="visible" fill="url(#SVGID_3_)"/>
	<clipPath id="SVGID_4_">
		<use xlink:href="#SVGID_2_"  overflow="visible"/>
	</clipPath>
	
		<linearGradient id="SVGID_5_" gradientUnits="userSpaceOnUse" x1="1.7672" y1="719.132" x2="2.5356" y2="719.132" gradientTransform="matrix(125.326 3.274 -3.274 125.326 2532.4968 -89767.6406)">
		<stop  offset="0" style="stop-color:#EBEBEB"/>
		<stop  offset="1" style="stop-color:#BFB9C1"/>
	</linearGradient>
	<polygon clip-path="url(#SVGID_4_)" fill="url(#SVGID_5_)" points="425.9,454.3 466.9,455.4 471.5,276.5 430.6,275.4 	"/>
</g>
<g>
	<defs>
		<rect id="SVGID_6_" x="328.6" y="354.2" width="36.3" height="100.3"/>
	</defs>
	<linearGradient id="SVGID_7_" gradientUnits="userSpaceOnUse" x1="328.5587" y1="404.3025" x2="364.8685" y2="404.3025">
		<stop  offset="0" style="stop-color:#E0E0E0"/>
		<stop  offset="1" style="stop-color:#BFB9C1"/>
	</linearGradient>
	<use xlink:href="#SVGID_6_"  overflow="visible" fill="url(#SVGID_7_)"/>
	<clipPath id="SVGID_8_">
		<use xlink:href="#SVGID_6_"  overflow="visible"/>
	</clipPath>
	
		<linearGradient id="SVGID_9_" gradientUnits="userSpaceOnUse" x1="1.9694" y1="719.0535" x2="2.7378" y2="719.0535" gradientTransform="matrix(125.142 5.804 -5.804 125.142 4224.5234 -89593.2188)">
		<stop  offset="0" style="stop-color:#E0E0E0"/>
		<stop  offset="1" style="stop-color:#BFB9C1"/>
	</linearGradient>
	<polygon clip-path="url(#SVGID_8_)" fill="url(#SVGID_9_)" points="323.9,454.2 364.8,456.1 369.5,354.4 328.6,352.5 	"/>
</g>
<g>
	<defs>
		<polygon id="SVGID_10_" points="364.9,214.1 397.7,186.4 430.6,214.1 430.6,454.4 364.9,454.4 		"/>
	</defs>
	<linearGradient id="SVGID_11_" gradientUnits="userSpaceOnUse" x1="364.8685" y1="320.4441" x2="430.572" y2="320.4441">
		<stop  offset="0" style="stop-color:#E0E0E0"/>
		<stop  offset="1" style="stop-color:#BFB9C1"/>
	</linearGradient>
	<use xlink:href="#SVGID_10_"  overflow="visible" fill="url(#SVGID_11_)"/>
	<clipPath id="SVGID_12_">
		<use xlink:href="#SVGID_10_"  overflow="visible"/>
	</clipPath>
	
		<linearGradient id="SVGID_13_" gradientUnits="userSpaceOnUse" x1="2.4356" y1="720.0261" x2="3.2041" y2="720.0261" gradientTransform="matrix(226.712 7.12 -7.12 226.712 4883.1348 -162938.2656)">
		<stop  offset="0" style="stop-color:#E0E0E0"/>
		<stop  offset="1" style="stop-color:#BFB9C1"/>
	</linearGradient>
	<polygon clip-path="url(#SVGID_12_)" fill="url(#SVGID_13_)" points="356.5,454.2 430.5,456.5 439,186.7 364.9,184.4 	"/>
</g>
<g>
	<defs>
		<polygon id="SVGID_14_" points="186.8,301.8 219.6,284.2 252.5,301.8 252.5,454.4 186.8,454.4 		"/>
	</defs>
	<linearGradient id="SVGID_15_" gradientUnits="userSpaceOnUse" x1="186.7775" y1="369.3154" x2="252.481" y2="369.3154">
		<stop  offset="0" style="stop-color:#E0E0E0"/>
		<stop  offset="1" style="stop-color:#BFB9C1"/>
	</linearGradient>
	<use xlink:href="#SVGID_14_"  overflow="visible" fill="url(#SVGID_15_)"/>
	<clipPath id="SVGID_16_">
		<use xlink:href="#SVGID_14_"  overflow="visible"/>
	</clipPath>
	
		<linearGradient id="SVGID_17_" gradientUnits="userSpaceOnUse" x1="1.6414" y1="720.2661" x2="2.4416" y2="720.2661" gradientTransform="matrix(226.712 7.12 -7.12 226.712 4883.1348 -162938.2656)">
		<stop  offset="0" style="stop-color:#E0E0E0"/>
		<stop  offset="1" style="stop-color:#BFB9C1"/>
	</linearGradient>
	<polygon clip-path="url(#SVGID_16_)" fill="url(#SVGID_17_)" points="178.4,454.3 252.4,455.8 260.9,284.4 186.8,282.9 	"/>
</g>
<rect x="375.2" y="222.8" fill="#FFFFFF" width="19" height="46.7"/>
<rect x="375.2" y="276.4" fill="#FFFFFF" width="19" height="46.7"/>
<rect x="375.2" y="330" fill="#FFFFFF" width="19" height="46.7"/>
<rect x="401.2" y="222.8" fill="#FFFFFF" width="19" height="46.7"/>
<rect x="439.2" y="346" fill="#FFFFFF" width="19" height="46.7"/>
<rect x="439.2" y="291.6" fill="#FFFFFF" width="19" height="46.7"/>
<rect x="197.2" y="314.9" fill="#FFFFFF" width="19" height="46.7"/>
<rect x="223.1" y="314.9" fill="#FFFFFF" width="19" height="46.7"/>
<rect x="401.2" y="276.4" fill="#FFFFFF" width="19" height="46.7"/>
<rect x="153.1" y="231" fill="#FFFFFF" width="19" height="46.7"/>
<rect x="401.2" y="330" fill="#FFFFFF" width="19" height="46.7"/>
<rect x="375.2" y="385.3" fill="#FFFFFF" width="45" height="69.2"/>
<g>
	<defs>
		<rect id="SVGID_18_" x="138.4" y="214.1" width="48.4" height="240.3"/>
	</defs>
	<linearGradient id="SVGID_19_" gradientUnits="userSpaceOnUse" x1="138.3644" y1="334.2765" x2="186.7775" y2="334.2765">
		<stop  offset="0" style="stop-color:#E0E0E0"/>
		<stop  offset="1" style="stop-color:#D2CFD3"/>
	</linearGradient>
	<use xlink:href="#SVGID_18_"  overflow="visible" fill="url(#SVGID_19_)"/>
	<clipPath id="SVGID_20_">
		<use xlink:href="#SVGID_18_"  overflow="visible"/>
	</clipPath>
	<linearGradient id="SVGID_21_" gradientUnits="userSpaceOnUse" x1="132.1669" y1="334.2765" x2="192.9751" y2="334.2765">
		<stop  offset="0" style="stop-color:#E0E0E0"/>
		<stop  offset="1" style="stop-color:#D2CFD3"/>
	</linearGradient>
	<polygon clip-path="url(#SVGID_20_)" fill="url(#SVGID_21_)" points="132.2,454.3 186.7,455.7 193,214.3 138.4,212.9 	"/>
</g>
<g>
	<defs>
		<rect id="SVGID_22_" x="147" y="200.3" width="31.1" height="13.8"/>
	</defs>
	<linearGradient id="SVGID_23_" gradientUnits="userSpaceOnUse" x1="147.0096" y1="207.1921" x2="178.1323" y2="207.1921">
		<stop  offset="0" style="stop-color:#E0E0E0"/>
		<stop  offset="1" style="stop-color:#BFB9C1"/>
	</linearGradient>
	<use xlink:href="#SVGID_22_"  overflow="visible" fill="url(#SVGID_23_)"/>
	<clipPath id="SVGID_24_">
		<use xlink:href="#SVGID_22_"  overflow="visible"/>
	</clipPath>
	
		<linearGradient id="SVGID_25_" gradientUnits="userSpaceOnUse" x1="1.8902" y1="719.4308" x2="2.6587" y2="719.4308" gradientTransform="matrix(99.25 28.607 -28.607 99.25 20516.7676 -71261.6172)">
		<stop  offset="0" style="stop-color:#E0E0E0"/>
		<stop  offset="1" style="stop-color:#BFB9C1"/>
	</linearGradient>
	<polygon clip-path="url(#SVGID_24_)" fill="url(#SVGID_25_)" points="143.3,213 175.7,222.4 181.8,201.3 149.4,192 	"/>
</g>
<g>
	<defs>
		<polygon id="SVGID_26_" points="152.2,186.4 162.6,178.7 172.9,186.4 172.9,200.3 152.2,200.3 		"/>
	</defs>
	<linearGradient id="SVGID_27_" gradientUnits="userSpaceOnUse" x1="152.1967" y1="189.4695" x2="172.9452" y2="189.4695">
		<stop  offset="0" style="stop-color:#E0E0E0"/>
		<stop  offset="1" style="stop-color:#BFB9C1"/>
	</linearGradient>
	<use xlink:href="#SVGID_26_"  overflow="visible" fill="url(#SVGID_27_)"/>
	<clipPath id="SVGID_28_">
		<use xlink:href="#SVGID_26_"  overflow="visible"/>
	</clipPath>
	
		<linearGradient id="SVGID_29_" gradientUnits="userSpaceOnUse" x1="1.7255" y1="718.5316" x2="2.494" y2="718.5316" gradientTransform="matrix(70.596 8.681 -8.681 70.596 6250.6216 -50554.3594)">
		<stop  offset="0" style="stop-color:#E0E0E0"/>
		<stop  offset="1" style="stop-color:#BFB9C1"/>
	</linearGradient>
	<polygon clip-path="url(#SVGID_28_)" fill="url(#SVGID_29_)" points="149.6,200 172.6,202.8 175.6,179 152.5,176.1 	"/>
</g>
<line fill="none" stroke="#9CACCE" stroke-width="3.0033" stroke-miterlimit="10" x1="124.7" y1="453.6" x2="483.5" y2="453.6"/>
<path fill="#FFFFFF" d="M382,451l-47.3-18.1l-51.9,20.8l-56.4-20.9l-43.2,16.5c-3.9,1.4-7.9-2.2-6.8-6.2l26.9-92.8
	c0.9-3,3-5.6,5.9-6.9l43.2-20.2l30.4,21.8l29.6-18.8l47.8,20.9c3.2,1.4,5.5,4.2,6.2,7.5l22.4,90.5C389.7,449,385.9,452.4,382,451"/>
<rect x="-19.2" y="94.8" fill="none" width="582.7" height="360.6"/>
<g>
	<defs>
		<polygon id="SVGID_30_" points="282.7,345 282.7,453.7 334.8,432.9 312.3,326.2 		"/>
	</defs>
	<linearGradient id="SVGID_31_" gradientUnits="userSpaceOnUse" x1="282.6938" y1="389.9388" x2="334.7801" y2="389.9388">
		<stop  offset="0" style="stop-color:#E0E0E0"/>
		<stop  offset="1" style="stop-color:#BFB9C1"/>
	</linearGradient>
	<use xlink:href="#SVGID_30_"  overflow="visible" fill="url(#SVGID_31_)"/>
	<clipPath id="SVGID_32_">
		<use xlink:href="#SVGID_30_"  overflow="visible"/>
	</clipPath>
	
		<linearGradient id="SVGID_33_" gradientUnits="userSpaceOnUse" x1="1.1881" y1="717.882" x2="1.9566" y2="717.882" gradientTransform="matrix(74.556 7.698 -7.698 74.556 5713.9048 -53144.9531)">
		<stop  offset="0" style="stop-color:#E0E0E0"/>
		<stop  offset="1" style="stop-color:#BFB9C1"/>
	</linearGradient>
	<polygon clip-path="url(#SVGID_32_)" fill="url(#SVGID_33_)" points="269.7,452.4 334.2,459 347.8,327.5 283.2,320.8 	"/>
</g>
<g>
	<defs>
		<rect id="SVGID_34_" x="-19.2" y="94.8" width="582.7" height="360.6"/>
	</defs>
	<clipPath id="SVGID_35_">
		<use xlink:href="#SVGID_34_"  overflow="visible"/>
	</clipPath>
</g>
<path fill="#FFFFFF" d="M162.6,231L162.6,231c5.3,0,9.5,4.3,9.5,9.5v27.7c0,5.3-4.3,9.5-9.5,9.5h0c-5.3,0-9.5-4.3-9.5-9.5v-27.7
	C153.1,235.2,157.3,231,162.6,231z"/>
<path fill="#FFFFFF" d="M164.8,383.3L164.8,383.3c9.4,0,17,8,17,17.9v51.2h-33.9v-51.2C147.8,391.3,155.4,383.3,164.8,383.3z"/>
<g>
	<defs>
		<path id="SVGID_36_" d="M209.2,343.4c-2.9,1.3-5,3.9-5.9,6.9l-26.9,92.8c-1.2,4,2.9,7.6,6.8,6.2l43.2-16.5l26-109.5L209.2,343.4z"
			/>
	</defs>
	<linearGradient id="SVGID_37_" gradientUnits="userSpaceOnUse" x1="176.1619" y1="386.4406" x2="252.3334" y2="386.4406">
		<stop  offset="0" style="stop-color:#E0E0E0"/>
		<stop  offset="1" style="stop-color:#BFB9C1"/>
	</linearGradient>
	<use xlink:href="#SVGID_36_"  overflow="visible" fill="url(#SVGID_37_)"/>
	<clipPath id="SVGID_38_">
		<use xlink:href="#SVGID_36_"  overflow="visible"/>
	</clipPath>
	
		<linearGradient id="SVGID_39_" gradientUnits="userSpaceOnUse" x1="1.9525" y1="718.9159" x2="2.7209" y2="718.9159" gradientTransform="matrix(107.69 16.423 -16.423 107.69 11763.6982 -77072.2266)">
		<stop  offset="0" style="stop-color:#E0E0E0"/>
		<stop  offset="1" style="stop-color:#BFB9C1"/>
	</linearGradient>
	<polygon clip-path="url(#SVGID_38_)" fill="url(#SVGID_39_)" points="156.2,447.8 250.6,462.2 271.3,326.2 177,311.8 	"/>
</g>
<g>
	<defs>
		<path id="SVGID_40_" d="M234.8,294.5c0,20.9,30.2,62.4,42.6,78.5c2.6,3.4,7.8,3.4,10.4,0c12.4-16.1,42.6-57.5,42.6-78.5
			c0-26.3-21.3-47.5-47.6-47.5C256.4,247,235.1,268.2,234.8,294.5"/>
	</defs>
	<linearGradient id="SVGID_41_" gradientUnits="userSpaceOnUse" x1="242.0097" y1="309.7755" x2="320.589" y2="312.5819">
		<stop  offset="1.612903e-002" style="stop-color:#A913EA"/>
		<stop  offset="0.2209" style="stop-color:#860EEE"/>
		<stop  offset="0.4564" style="stop-color:#565BF2"/>
		<stop  offset="0.738" style="stop-color:#309CF7"/>
		<stop  offset="0.9892" style="stop-color:#0DD7FC"/>
	</linearGradient>
	<use xlink:href="#SVGID_40_"  overflow="visible" fill="url(#SVGID_41_)"/>
	<clipPath id="SVGID_42_">
		<use xlink:href="#SVGID_40_"  overflow="visible"/>
	</clipPath>
	
		<linearGradient id="SVGID_43_" gradientUnits="userSpaceOnUse" x1="1.7778" y1="721.6622" x2="2.5708" y2="721.6905" gradientTransform="matrix(0 167.2937 -167.2937 0 121014.4844 -52.0703)">
		<stop  offset="1.612903e-002" style="stop-color:#A913EA"/>
		<stop  offset="0.2209" style="stop-color:#860EEE"/>
		<stop  offset="0.4564" style="stop-color:#565BF2"/>
		<stop  offset="0.738" style="stop-color:#309CF7"/>
		<stop  offset="0.9892" style="stop-color:#0DD7FC"/>
	</linearGradient>
	<rect x="234.8" y="247" clip-path="url(#SVGID_42_)" fill="url(#SVGID_43_)" width="95.5" height="129.4"/>
</g>
<g>
	<defs>
		<rect id="SVGID_44_" x="-19.2" y="94.8" width="582.7" height="360.6"/>
	</defs>
	<clipPath id="SVGID_45_">
		<use xlink:href="#SVGID_44_"  overflow="visible"/>
	</clipPath>
	<path clip-path="url(#SVGID_45_)" fill="#FFFFFF" d="M282.7,313.1c10.4,0,18.8-8.4,18.8-18.8c0-10.4-8.4-18.8-18.8-18.8
		c-10.4,0-18.8,8.4-18.8,18.8C263.8,304.7,272.3,313.1,282.7,313.1"/>
</g>
<circle fill="none" stroke="#7788C4" stroke-width="2.7798" cx="420.2" cy="118.1" r="6.9"/>
<circle fill="none" stroke="#7788C4" stroke-width="2.5382" cx="378.1" cy="528.9" r="6.3"/>
<polygon fill="#848484" points="80.7,391 84.1,400.2 93.3,403.6 84.1,407 80.7,416.1 77.4,407 68.2,403.6 77.4,400.2 "/>
<polygon fill="#7788C4" points="146.7,125 149.3,132.1 156.4,134.8 149.3,137.4 146.7,144.5 144,137.4 136.9,134.8 144,132.1 "/>
<circle fill="none" stroke="#808285" stroke-width="2.2689" cx="517.5" cy="269.4" r="9.9"/>
</svg>
