<?xml version="1.0" encoding="utf-8"?>
<!-- Generator: Adobe Illustrator 18.0.0, SVG Export Plug-In . SVG Version: 6.00 Build 0)  -->
<!DOCTYPE svg PUBLIC "-//W3C//DTD SVG 1.1//EN" "http://www.w3.org/Graphics/SVG/1.1/DTD/svg11.dtd">
<svg version="1.1" id="Layer_1" xmlns="http://www.w3.org/2000/svg" xmlns:xlink="http://www.w3.org/1999/xlink" x="0px" y="0px"
	 viewBox="0 0 600 600" enable-background="new 0 0 600 600" xml:space="preserve">
<linearGradient id="SVGID_1_" gradientUnits="userSpaceOnUse" x1="290.2668" y1="89.0527" x2="329.4278" y2="645.6985">
	<stop  offset="5.376344e-003" style="stop-color:#C9C9C9;stop-opacity:0.2"/>
	<stop  offset="0.2618" style="stop-color:#ABABAB;stop-opacity:0.2"/>
	<stop  offset="0.7589" style="stop-color:#747474;stop-opacity:0.2"/>
	<stop  offset="1" style="stop-color:#5E5E5E;stop-opacity:0.2"/>
</linearGradient>
<path opacity="0.67" fill="url(#SVGID_1_)" d="M46.8,309c0,143,115.9,258.9,258.9,258.9c143,0,258.9-115.9,258.9-258.9
	c0-143-115.9-258.9-258.9-258.9C162.7,50.1,46.8,166,46.8,309"/>
<rect x="29.5" y="76.6" fill="none" width="579" height="488.6"/>
<g>
	
		<linearGradient id="SVGID_2_" gradientUnits="userSpaceOnUse" x1="-397.7925" y1="-434.356" x2="5754.583" y2="6649.333" gradientTransform="matrix(0.9696 -0.2448 0.2448 0.9696 -52.235 78.9397)">
		<stop  offset="0" style="stop-color:#E0E0E0"/>
		<stop  offset="0.1322" style="stop-color:#D2CFD3"/>
		<stop  offset="0.3008" style="stop-color:#C7C3C9"/>
		<stop  offset="0.5228" style="stop-color:#C1BBC3"/>
		<stop  offset="1" style="stop-color:#BFB9C1"/>
	</linearGradient>
	<path fill="url(#SVGID_2_)" d="M483.1,429.9c-109.9,24-217.8,56.1-322.8,95.9c-6,2.3-12.6-1-14.7-7.4
		c-29.4-90.6-58.8-181.3-88.2-271.9c-2.1-6.4,1.8-13.2,8.7-15.2c119.6-34.9,241.5-61,364.8-78c7.1-1,13.7,3.1,14.8,9.1
		c15.6,84.8,31.3,169.6,46.9,254.4C493.6,422.6,489.4,428.5,483.1,429.9z"/>
	<path fill="#F2F2F2" d="M431.4,175.1c14.8,78.1,29.7,156.1,44.5,234.2c1,5.5-2.8,11-8.7,12.3c-101.2,22.4-200.7,51.6-297.8,87.3
		c-5.6,2.1-11.6-1-13.5-6.8c-26.4-83-52.9-166-79.3-249c-1.9-5.8,1.7-12.1,8-13.9c109.4-31.6,220.7-55.7,333.1-72.3
		C424.3,165.9,430.4,169.6,431.4,175.1z"/>
	<g>
		
			<linearGradient id="SVGID_3_" gradientUnits="userSpaceOnUse" x1="120.7209" y1="233.4218" x2="105.2215" y2="345.7924" gradientTransform="matrix(0.8971 -0.4417 0.4417 0.8971 -78.9334 152.6255)">
			<stop  offset="1.612903e-002" style="stop-color:#A913EA"/>
			<stop  offset="0.2209" style="stop-color:#860EEE"/>
			<stop  offset="0.4564" style="stop-color:#565BF2"/>
			<stop  offset="0.738" style="stop-color:#309CF7"/>
			<stop  offset="0.9892" style="stop-color:#0DD7FC"/>
		</linearGradient>
		<path fill="url(#SVGID_3_)" d="M164.2,334.9c4.3,13.3-6.3,23.4-9.7,31.7c-0.3,0.6-0.5,1.2-0.6,1.8c-0.4,1.3-1.9,1.8-3,1
			c-7-5.3-23.4-6.2-28.3-20.6c-4.7-13.7,2-24.4,13.7-28.2c8.6-2.8,17.3-1.1,23,5.5C161.4,328.4,163.1,331.4,164.2,334.9z"/>
		<path fill="#FFFFFF" d="M149.7,338.3c1.2,3.5-0.9,7.4-4.5,8.6c-3.7,1.2-7.6-0.6-8.8-4.2c-1.2-3.5,0.8-7.4,4.5-8.6
			C144.6,332.9,148.5,334.7,149.7,338.3z"/>
	</g>
	<g>
		
			<linearGradient id="SVGID_4_" gradientUnits="userSpaceOnUse" x1="385.5101" y1="263.6426" x2="371.0163" y2="368.7228" gradientTransform="matrix(0.8971 -0.4417 0.4417 0.8971 -78.9334 152.6255)">
			<stop  offset="9.500000e-007" style="stop-color:#FFC3AB"/>
			<stop  offset="1" style="stop-color:#FF47AD"/>
		</linearGradient>
		<path fill="url(#SVGID_4_)" d="M415.3,245.5c2.9,12.7-8.8,21.1-13.1,28.4c-0.3,0.5-0.6,1.1-0.8,1.6c-0.5,1.2-2.1,1.5-3.1,0.7
			c-6.5-5.6-22.8-7.9-26.2-21.7c-3.2-13.1,4.6-22.4,16.8-24.9c9-1.8,17.5,0.6,22.6,7.3C413.2,239.2,414.5,242.1,415.3,245.5z"/>
		
			<linearGradient id="SVGID_5_" gradientUnits="userSpaceOnUse" x1="344.1845" y1="199.7623" x2="420.1016" y2="376.0119" gradientTransform="matrix(0.8971 -0.4417 0.4417 0.8971 -78.9334 152.6255)">
			<stop  offset="9.500000e-007" style="stop-color:#FFC3AB"/>
			<stop  offset="1" style="stop-color:#FF47AD"/>
		</linearGradient>
		<path fill="url(#SVGID_5_)" d="M415.3,245.5c2.9,12.7-8.8,21.1-13.1,28.4c-4.1-2.8-7.6-6.5-9-12.1c-3.1-13.1,4.7-22.3,16.9-24.7
			c0.4-0.1,0.9-0.2,1.3-0.2C413.2,239.2,414.5,242.1,415.3,245.5z"/>
		<path fill="#FFFFFF" d="M400.3,247.2c0.8,3.4-1.7,6.8-5.5,7.6c-3.8,0.8-7.6-1.3-8.4-4.7c-0.8-3.4,1.6-6.8,5.5-7.6
			C395.7,241.7,399.5,243.9,400.3,247.2z"/>
	</g>
	
		<linearGradient id="SVGID_6_" gradientUnits="userSpaceOnUse" x1="829.9518" y1="22.0152" x2="839.256" y2="407.2027" gradientTransform="matrix(0.7707 -0.1946 0.2448 0.9696 -428.3709 173.9219)">
		<stop  offset="0" style="stop-color:#E0E0E0"/>
		<stop  offset="1" style="stop-color:#BFB9C1"/>
	</linearGradient>
	<path fill="url(#SVGID_6_)" d="M322,222.9c-5.4,22.6-10.6,45.4-15.4,68.5c-23,5-45.9,10.4-68.7,16.4c-5.8-21.3-11.6-42.5-17.3-63.8
		C254.1,235.9,287.9,228.9,322,222.9z"/>
	<path opacity="0.96" fill="#FFFFFF" d="M445.9,251.9c-1.2-6.4-2.4-12.8-3.7-19.2c-30.8-8.6-62-16.9-93.6-25
		c4.7-10.6,9.4-21,14.3-31.5c-7.9,1.3-15.8,2.7-23.6,4.1c-19,42.1-36.6,85.2-53,129.3c-8.7,23.2-28.4,41.1-53.3,48.2
		c-5.9,1.7-11.8,3.4-17.7,5.1c-13.8-49-27.6-98.1-41.4-147.1c-6.5,1.6-13.1,3.3-19.6,5c14.2,49.2,28.4,98.4,42.6,147.5
		c-25.5,7.6-50.8,15.7-76,24.1c1.9,6,3.8,12,5.7,18c37.1-12.6,74.4-24.3,112-35.1c17.9,3.2,35.7,6.6,53.4,10
		c-8.9,29.9-17.3,60.1-25.1,90.7c6.8-2.1,13.5-4.3,20.3-6.4c7.2-27.2,14.9-54.2,23-80.8c52.7,10.4,104.4,21.7,155,33.7
		c0.6-0.1,1.3-0.3,1.9-0.4c5.8-1.3,9.7-6.8,8.7-12.3c-0.2-1-0.4-2.1-0.6-3.1c-67.5-16.4-136.9-31.5-208-45
		c16.8-11.4,30-27.6,37.2-46.6c3-7.9,6-15.8,9.1-23.7c49.7,10.9,98.5,22.6,146.4,34.9c-1.2-6.4-2.4-12.7-3.6-19.1
		c-44.6-11.5-89.9-22.5-136-32.9c6.8-16.9,13.8-33.6,20.9-50.1C376.6,233.1,411.5,242.4,445.9,251.9z"/>
	<g>
		<path fill="none" stroke="#7788C4" stroke-width="7.2486" stroke-linecap="round" stroke-linejoin="round" d="M152.6,389.4
			c1.8-0.6,3.6-1.2,5.5-1.8"/>
		
			<path fill="none" stroke="#7788C4" stroke-width="7.2486" stroke-linecap="round" stroke-linejoin="round" stroke-dasharray="10.5946,14.1261" d="
			M172.3,383.2c25.2-7.9,50.5-15.4,76-22.5c19.9-5.5,35.9-20.1,42.8-38.7c4-10.7,8-21.4,12.1-32"/>
		<path fill="none" stroke="#7788C4" stroke-width="7.2486" stroke-linecap="round" stroke-linejoin="round" d="M305.8,283.3
			c0.7-1.7,1.3-3.4,2-5.1c1.9,0.4,3.8,0.9,5.6,1.4"/>
		
			<path fill="none" stroke="#7788C4" stroke-width="7.2486" stroke-linecap="round" stroke-linejoin="round" stroke-dasharray="9.4518,12.6024" d="
			M326.5,282.7c20.6,5,41.1,10.2,61.4,15.4"/>
		<path fill="none" stroke="#7788C4" stroke-width="7.2486" stroke-linecap="round" stroke-linejoin="round" d="M394.3,299.8
			c1.8,0.5,3.7,1,5.5,1.4"/>
	</g>
</g>
<g>
	<defs>
		<path id="SVGID_7_" d="M389.6,114.4c-9.7,4-18.6,9.9-26,17.4c-7.2,7-12.9,15.4-16.8,24.6c-3.9,9.2-5.9,19.2-5.9,29.2
			c0,20.3,7.9,41.3,22.6,59.4l45.7,59.3c1.3,1.7,2.9,3,4.8,4c1.9,0.9,4,1.4,6.1,1.4c2.1,0,4.2-0.5,6.1-1.4c1.9-0.9,3.5-2.3,4.8-4
			l45.7-59.3c14.8-18.1,22.6-39.1,22.6-59.4c0-10-2-20-5.8-29.2c-3.9-9.2-9.6-17.6-16.7-24.6c-7.4-7.4-16.3-13.3-26-17.4
			c-9.7-4-20.1-6.1-30.7-6.1C409.7,108.3,399.3,110.3,389.6,114.4"/>
	</defs>
	<linearGradient id="SVGID_8_" gradientUnits="userSpaceOnUse" x1="340.9659" y1="208.9789" x2="499.4982" y2="208.9789">
		<stop  offset="1.612903e-002" style="stop-color:#A913EA"/>
		<stop  offset="0.2209" style="stop-color:#860EEE"/>
		<stop  offset="0.4564" style="stop-color:#565BF2"/>
		<stop  offset="0.738" style="stop-color:#309CF7"/>
		<stop  offset="0.9892" style="stop-color:#0DD7FC"/>
	</linearGradient>
	<use xlink:href="#SVGID_7_"  overflow="visible" fill="url(#SVGID_8_)"/>
	<clipPath id="SVGID_9_">
		<use xlink:href="#SVGID_7_"  overflow="visible"/>
	</clipPath>
	
		<linearGradient id="SVGID_10_" gradientUnits="userSpaceOnUse" x1="2.4265" y1="720.072" x2="3.3372" y2="720.072" gradientTransform="matrix(126.3929 195.0727 -195.0727 126.3929 140510.7969 -91383.0547)">
		<stop  offset="1.612903e-002" style="stop-color:#A913EA"/>
		<stop  offset="0.2209" style="stop-color:#860EEE"/>
		<stop  offset="0.4564" style="stop-color:#565BF2"/>
		<stop  offset="0.738" style="stop-color:#309CF7"/>
		<stop  offset="0.9892" style="stop-color:#0DD7FC"/>
	</linearGradient>
	<polygon clip-path="url(#SVGID_9_)" fill="url(#SVGID_10_)" points="249,167.8 387.8,382.1 591.4,250.1 452.6,35.9 	"/>
</g>
<g>
	<defs>
		<rect id="SVGID_11_" x="142.8" y="97.6" width="418.3" height="353"/>
	</defs>
	<clipPath id="SVGID_12_">
		<use xlink:href="#SVGID_11_"  overflow="visible"/>
	</clipPath>
	<path clip-path="url(#SVGID_12_)" fill="#FFFFFF" d="M420.2,220.5c18.4,0,33.2-14.9,33.2-33.2c0-18.4-14.9-33.2-33.2-33.2
		c-18.4,0-33.2,14.9-33.2,33.2C387,205.6,401.9,220.5,420.2,220.5"/>
</g>
<polygon fill="#7788C4" points="186.3,541.8 188.3,547.3 193.8,549.3 188.3,551.4 186.3,556.9 184.3,551.4 178.8,549.3 184.3,547.3 
	"/>
<polygon fill="#7788C4" points="172.3,70.1 176,80.1 186.1,83.9 176,87.6 172.3,97.6 168.6,87.6 158.5,83.9 168.6,80.1 "/>
<circle fill="none" stroke="#7788C4" stroke-width="3.8239" cx="437.6" cy="532.1" r="9.5"/>
<circle fill="none" stroke="#848484" stroke-width="2.7728" cx="545.6" cy="300.5" r="6.9"/>
</svg>
