<?xml version="1.0" encoding="utf-8"?>
<!-- Generator: Adobe Illustrator 18.0.0, SVG Export Plug-In . SVG Version: 6.00 Build 0)  -->
<!DOCTYPE svg PUBLIC "-//W3C//DTD SVG 1.1//EN" "http://www.w3.org/Graphics/SVG/1.1/DTD/svg11.dtd">
<svg version="1.1" id="Layer_1" xmlns="http://www.w3.org/2000/svg" xmlns:xlink="http://www.w3.org/1999/xlink" x="0px" y="0px"
	 viewBox="0 0 600 600" enable-background="new 0 0 600 600" xml:space="preserve">
<g>
	<defs>
		<rect id="SVGID_1_" x="-114.6" y="-26.5" width="835.5" height="666.6"/>
	</defs>
	<clipPath id="SVGID_2_">
		<use xlink:href="#SVGID_1_"  overflow="visible"/>
	</clipPath>
</g>
<rect x="-145.4" y="-39.1" fill="none" width="897.2" height="742.8"/>
<rect x="-145.4" y="-39.1" fill="none" width="897.2" height="742.8"/>
<g opacity="0.58">
	<defs>
		<path id="SVGID_3_" opacity="0.58" d="M63.3,292.5c0,134.4,109,243.4,243.4,243.4c134.4,0,243.4-109,243.4-243.4
			c0-134.4-109-243.4-243.4-243.4C172.2,49.1,63.3,158,63.3,292.5"/>
	</defs>
	<linearGradient id="SVGID_4_" gradientUnits="userSpaceOnUse" x1="301.2942" y1="55.1851" x2="313.8612" y2="608.136">
		<stop  offset="5.376344e-003" style="stop-color:#C9C9C9;stop-opacity:0.2"/>
		<stop  offset="0.2618" style="stop-color:#ABABAB;stop-opacity:0.2"/>
		<stop  offset="0.7589" style="stop-color:#747474;stop-opacity:0.2"/>
		<stop  offset="1" style="stop-color:#5E5E5E;stop-opacity:0.2"/>
	</linearGradient>
	<use xlink:href="#SVGID_3_"  overflow="visible" fill="url(#SVGID_4_)"/>
	<clipPath id="SVGID_5_">
		<use xlink:href="#SVGID_3_"  overflow="visible"/>
	</clipPath>
	<defs>
		<filter id="Adobe_OpacityMaskFilter" filterUnits="userSpaceOnUse" x="60.4" y="46.2" width="492.5" height="492.5">
			<feColorMatrix  type="matrix" values="1 0 0 0 0  0 1 0 0 0  0 0 1 0 0  0 0 0 1 0"/>
		</filter>
	</defs>
	<mask maskUnits="userSpaceOnUse" x="60.4" y="46.2" width="492.5" height="492.5" id="SVGID_6_">
		<g filter="url(#Adobe_OpacityMaskFilter)">
			
				<linearGradient id="SVGID_7_" gradientUnits="userSpaceOnUse" x1="2.5414" y1="720.826" x2="3.8972" y2="720.826" gradientTransform="matrix(3.6783 630.4891 -630.4891 3.6783 454768.375 -4283.8911)">
				<stop  offset="0" style="stop-color:#000000"/>
				<stop  offset="1" style="stop-color:#FFFFFF"/>
			</linearGradient>
			<polygon clip-path="url(#SVGID_5_)" fill="url(#SVGID_7_)" points="60.4,49.1 63.3,538.7 553,535.9 550.1,46.2 			"/>
		</g>
	</mask>
	<linearGradient id="SVGID_8_" gradientUnits="userSpaceOnUse" x1="301.2942" y1="55.1851" x2="313.8612" y2="608.136">
		<stop  offset="5.376344e-003" style="stop-color:#C9C9C9;stop-opacity:0.2"/>
		<stop  offset="0.2618" style="stop-color:#ABABAB;stop-opacity:0.2"/>
		<stop  offset="0.7589" style="stop-color:#747474;stop-opacity:0.2"/>
		<stop  offset="1" style="stop-color:#5E5E5E;stop-opacity:0.2"/>
	</linearGradient>
	<polygon clip-path="url(#SVGID_5_)" mask="url(#SVGID_6_)" fill="url(#SVGID_8_)" points="60.4,49.1 63.3,538.7 553,535.9 
		550.1,46.2 	"/>
</g>
<path fill="#848484" d="M486.6,452.6c0.4-1.5,2.4-1.5,2.8,0l1.2,4.9c0.1,0.5,0.5,0.9,1,1l4.9,1.2c1.5,0.3,1.5,2.4,0,2.8l-4.9,1.2
	c-0.5,0.1-0.9,0.5-1,1l-1.2,4.9c-0.4,1.5-2.4,1.5-2.8,0l-1.2-4.9c-0.1-0.5-0.5-0.9-1-1l-4.9-1.2c-1.5-0.3-1.5-2.4,0-2.8l4.9-1.2
	c0.5-0.1,0.9-0.5,1-1L486.6,452.6z"/>
<circle fill="none" stroke="#7788C4" stroke-width="3.8282" cx="215" cy="551.7" r="7"/>
<circle fill="none" stroke="#BCBEC0" stroke-width="4.1211" cx="132.4" cy="97" r="7.6"/>
<g>
	<defs>
		<path id="SVGID_9_" d="M488,125.6l1.9,17.8c0.3,2.6,3.3,4,5.5,2.4l14.5-10.6c2.1-1.6,1.8-4.9-0.6-5.9l-16.4-7.3
			c-0.5-0.2-0.9-0.3-1.4-0.3C489.5,121.8,487.8,123.5,488,125.6"/>
	</defs>
	<use xlink:href="#SVGID_9_"  overflow="visible" fill="#7788C4"/>
	<clipPath id="SVGID_10_">
		<use xlink:href="#SVGID_9_"  overflow="visible"/>
	</clipPath>
	
		<rect x="484" y="118.2" transform="matrix(-0.9299 -0.3678 0.3678 -0.9299 915.303 443.6705)" clip-path="url(#SVGID_10_)" fill="#7788C4" width="32" height="32.7"/>
</g>
<path fill="#7788C4" d="M38,329.5c0.2-0.9,1.4-0.9,1.6,0l2.8,13c0.1,0.3,0.3,0.6,0.6,0.6l12.9,2.8c0.9,0.2,0.9,1.4,0,1.6L43,350.4
	c-0.3,0.1-0.6,0.3-0.6,0.6l-2.8,13c-0.2,0.9-1.4,0.9-1.6,0l-2.8-13c-0.1-0.3-0.3-0.6-0.6-0.6l-12.9-2.8c-0.9-0.2-0.9-1.4,0-1.6
	l12.9-2.8c0.3-0.1,0.6-0.3,0.6-0.6L38,329.5z"/>
<g>
	<path fill="#C4CBF5" d="M332,90.5c-0.8-0.2-0.8-1.2,0-1.4l11.4-2.4c0.3-0.1,0.5-0.3,0.5-0.5l2.5-11.3c0.2-0.7,1.2-0.7,1.4,0
		l2.5,11.3c0.1,0.3,0.3,0.5,0.5,0.5l11.4,2.4c0.8,0.2,0.8,1.2,0,1.4l-11.4,2.4c-0.3,0.1-0.5,0.3-0.5,0.5l-2.5,11.3
		c-0.2,0.7-1.2,0.7-1.4,0l-2.5-11.3c-0.1-0.3-0.3-0.5-0.5-0.5L332,90.5z"/>
	<linearGradient id="SVGID_11_" gradientUnits="userSpaceOnUse" x1="209.1395" y1="67.7498" x2="270.5613" y2="67.7498">
		<stop  offset="0" style="stop-color:#E0E0E0"/>
		<stop  offset="1" style="stop-color:#BFB9C1"/>
	</linearGradient>
	<path fill="url(#SVGID_11_)" d="M269.6,59.7c4.2,15.4-5.6,31.7-22.1,36.2c-16.5,4.5-33.2-4.6-37.4-20.1
		c-4.2-15.4,5.6-31.7,22.1-36.2C248.8,35.1,265.4,44.3,269.6,59.7"/>
	<path fill="none" d="M269.6,59.7c4.2,15.4-5.6,31.7-22.1,36.2c-16.5,4.5-33.2-4.6-37.4-20.1c-4.2-15.4,5.6-31.7,22.1-36.2
		C248.8,35.1,265.4,44.3,269.6,59.7z"/>
	<path fill="#DDE2FF" d="M229.8,67.9l9.7-3.9l18.1-4.9c13.8-3.7,28.3-4.2,42.3-1.4c5.2,1.1,10.3,2.6,15.3,4.5l18.4,7.2l11,5.9
		c8.3,4.5,16.1,9.9,23.1,16.3c8.1,7.3,15.1,15.6,20.9,24.8L399,133l20.6,44.3l14.2,31.3l22.5,37.2l17.4,29l13.3,19.1
		c4.1,5.8,10.2,10,17.1,11.6c5.2,1.2,10,3.9,13.8,7.7l6.6,6.6c0.9,0.9,1.7,1.9,2.4,2.9c4.2,6.2,4.6,14.2,1.1,20.8l-0.4,0.8
		c-2.3,4.4-6.1,7.8-10.7,9.8l-31,13.1l-47.1,16.6L356,408.2L308.7,421L242.4,437l-59.2,12.2l-32.9,4.4c-5.7,0.8-11.4-1.2-15.3-5.3
		c-3.6-3.7-5.4-8.8-4.9-14l0.5-6c0.5-6.2,3.6-11.9,8.5-15.8c4.8-3.8,7.8-9.4,8.5-15.5l3-29.5v-38.8l-4.9-53.4l-2.6-37.8l-1.4-16.2
		c-0.8-9.7-0.8-19.4-0.1-29.1l0.4-4.5c0.9-10.9,3-21.7,6.4-32.1c3-9.3,7-18.3,11.9-26.8l1.4-2.5c4.7-8.2,10.3-15.9,16.7-22.9
		c6.6-7.2,13.9-13.7,21.9-19.3l1-0.7C210.1,77.2,219.7,72,229.8,67.9"/>
	<rect x="27.5" y="21" fill="none" width="536.3" height="1017.6"/>
	<g>
		<defs>
			<path id="SVGID_12_" d="M257.7,59l-18.1,4.9l-9.7,3.9c-10.1,4.1-19.7,9.3-28.6,15.6l-1,0.7c-8,5.6-15.3,12.1-21.9,19.3
				c-6.4,7-12,14.7-16.7,22.9l-1.4,2.5c-4.9,8.5-8.9,17.5-11.9,26.8c-3.4,10.4-5.5,21.2-6.4,32.1l-0.4,4.5
				c-0.8,9.7-0.7,19.4,0.1,29.1l1.4,16.2l2.6,37.8l4.9,53.4l2.1,38.5c0.7,13.5-3.6,26.9-12.1,37.5l-2.8,3.5
				c-4.1,5.2-6.9,11.3-7.9,17.8l-0.1,0.8c-0.2,1.5-0.4,3-0.4,4.5v2.1c0,5.9,2.3,11.5,6.3,15.7c3.6,3.8,8.5,6.2,13.7,6.8l9.6,1.1
				c3.7,0.4,7.5,0.5,11.3,0l19.1-2.1l62.4-9l33.2-6.5l35.1-7.2l13-3.3l18.9-5.2l22.1-7.8l21.5-7.2l25.4-9.8l29.3-11.7l43.3-19.5
				l15.4-8.1l8.1-4.3c4.8-2.5,8.8-6.3,11.7-10.8l0.4-0.7c0.9-1.4,1.6-2.8,2.2-4.4l0.1-0.3c1.6-4.2,1.8-8.8,0.7-13.1
				c-1.1-4.3-3.5-8.3-6.8-11.2l-2.5-2.2c-4.2-3.7-9.4-6.3-14.9-7.5l-0.8-0.2c-8.7-1.8-16.3-6.8-21.5-13.9l-11.8-16.2l-17.4-29
				l-22.5-37.2l-14.2-31.3L399,132.9l-10.5-16.6c-5.8-9.2-12.8-17.5-20.9-24.8c-7-6.3-14.8-11.8-23.1-16.3l-11-5.9l-18.4-7.2
				c-4.9-1.9-10-3.4-15.3-4.5c-6-1.2-12.1-1.8-18.3-1.8C273.6,55.8,265.6,56.9,257.7,59"/>
		</defs>
		<linearGradient id="SVGID_13_" gradientUnits="userSpaceOnUse" x1="129.3031" y1="256.5125" x2="532.827" y2="256.5125">
			<stop  offset="0" style="stop-color:#FFFFFF"/>
			<stop  offset="0.2244" style="stop-color:#F6F5F6;stop-opacity:0.9323"/>
			<stop  offset="0.6027" style="stop-color:#DEDBDF;stop-opacity:0.8182"/>
			<stop  offset="0.9946" style="stop-color:#BFB9C1;stop-opacity:0.7"/>
		</linearGradient>
		<use xlink:href="#SVGID_12_"  overflow="visible" fill="url(#SVGID_13_)"/>
		<clipPath id="SVGID_14_">
			<use xlink:href="#SVGID_12_"  overflow="visible"/>
		</clipPath>
		
			<linearGradient id="SVGID_15_" gradientUnits="userSpaceOnUse" x1="2.8892" y1="722.6328" x2="5.2698" y2="722.6328" gradientTransform="matrix(-44.534 -144.804 144.804 -44.534 -104135.7188 33001.2578)">
			<stop  offset="0" style="stop-color:#FFFFFF"/>
			<stop  offset="0.2244" style="stop-color:#F6F5F6;stop-opacity:0.9323"/>
			<stop  offset="0.6027" style="stop-color:#DEDBDF;stop-opacity:0.8182"/>
			<stop  offset="0.9946" style="stop-color:#BFB9C1;stop-opacity:0.7"/>
		</linearGradient>
		<polygon clip-path="url(#SVGID_14_)" fill="url(#SVGID_15_)" points="646.1,422.6 498.3,-57.7 16.5,90.5 164.2,570.8 		"/>
	</g>
	<path fill="none" stroke="#E2E2E2" stroke-width="4.7612" d="M229.8,67.8l9.7-3.9l18.1-4.9c13.8-3.7,28.3-4.2,42.3-1.4
		c5.2,1.1,10.3,2.6,15.3,4.5l18.4,7.2l11,5.9c8.3,4.5,16.1,9.9,23.1,16.3c8.1,7.3,15.1,15.6,20.9,24.8l10.5,16.6l20.6,44.3
		l14.2,31.3l22.5,37.2l17.4,29l11.8,16.2c5.2,7.1,12.9,12.1,21.5,13.9l0.8,0.2c5.5,1.2,10.7,3.8,14.9,7.5l2.5,2.2
		c3.4,3,5.7,6.9,6.8,11.2c1.1,4.3,0.8,8.9-0.7,13.1l-0.1,0.3c-0.6,1.5-1.3,3-2.2,4.4l-0.4,0.7c-2.9,4.6-7,8.3-11.7,10.8l-8.1,4.3
		l-15.4,8.1l-43.3,19.5L420.9,399l-25.4,9.8l-21.5,7.2l-22.1,7.8l-18.9,5.2l-13,3.3l-35.1,7.2l-33.2,6.5l-62.4,9l-19.1,2.1
		c-3.7,0.4-7.5,0.4-11.3,0l-9.6-1.1c-5.2-0.6-10.1-3-13.7-6.8c-4.1-4.2-6.3-9.9-6.3-15.7v-2.1c0-1.5,0.1-3,0.4-4.5l0.1-0.8
		c1.1-6.5,3.8-12.7,7.9-17.8l2.8-3.5c8.5-10.6,12.8-23.9,12.1-37.5l-2.1-38.5l-4.9-53.4l-2.6-37.8l-1.4-16.2
		c-0.8-9.7-0.8-19.4-0.1-29.1l0.4-4.5c0.9-10.9,3-21.7,6.4-32.1c3-9.3,7-18.3,11.9-26.8l1.4-2.5c4.7-8.2,10.3-15.9,16.7-22.9
		c6.6-7.2,13.9-13.7,21.9-19.3l1-0.7C210.1,77.2,219.7,71.9,229.8,67.8z"/>
	<linearGradient id="SVGID_16_" gradientUnits="userSpaceOnUse" x1="156.8291" y1="385.9275" x2="499.6705" y2="385.9275">
		<stop  offset="0" style="stop-color:#E0E0E0"/>
		<stop  offset="1" style="stop-color:#BFB9C1"/>
	</linearGradient>
	<path fill="url(#SVGID_16_)" d="M320,356c94.6-26.2,174.9-33.9,179.5-17.4c4.6,16.5-68.4,51.1-162.9,77.3
		C242,442,161.6,449.8,157,433.3C152.5,416.7,225.4,382.1,320,356"/>
	<linearGradient id="SVGID_17_" gradientUnits="userSpaceOnUse" x1="291.7946" y1="373.5106" x2="364.7051" y2="373.5106">
		<stop  offset="1.612903e-002" style="stop-color:#A913EA"/>
		<stop  offset="0.3661" style="stop-color:#860EEE"/>
		<stop  offset="0.7414" style="stop-color:#565BF2"/>
		<stop  offset="0.9746" style="stop-color:#309CF7"/>
	</linearGradient>
	<path fill="url(#SVGID_17_)" d="M304.7,390.4l-1.9-2.1c-2.1-2.2-3.8-4.7-5.2-7.3c-1-1.8-1.8-3.7-2.4-5.7l-3.3-10.6l7.9-2.8l7.9-2.9
		l19.4-5.2l21.8-5.8l12.8-2.8l0.6,1.9c1.9,6.4,2.7,13,2.6,19.6l-0.5,4.7c-0.5,5.6-2.4,11-5.5,15.7l-0.2,0.3
		c-1.3,1.9-2.7,3.7-4.4,5.3c-4.6,4.5-10.5,7.4-16.8,8.5l-2.3,0.4c-2,0.3-4,0.5-6,0.4c-6.6-0.2-12.9-2.3-18.2-6.3l-1.2-0.9
		C307.8,393.4,306.2,392,304.7,390.4"/>
	<path fill="none" d="M299.2,395.6l-1.9-2.1c-2.1-2.2-3.8-4.7-5.2-7.3c-1-1.8-1.8-3.7-2.4-5.7l-3.3-10.6l7.9-2.8l7.9-2.9l19.4-5.2
		l21.8-5.8l12.8-2.8l0.6,1.9c1.9,6.4,2.7,13,2.6,19.6l-0.5,4.7c-0.5,5.6-2.4,11-5.5,15.7l-0.2,0.3c-1.3,1.9-2.7,3.7-4.4,5.3
		c-4.6,4.5-10.5,7.4-16.8,8.5l-2.3,0.4c-2,0.3-4,0.5-6,0.4c-6.6-0.2-12.9-2.3-18.2-6.3l-1.2-0.9
		C302.4,398.6,300.7,397.2,299.2,395.6z"/>
	<rect x="27.5" y="21" fill="none" width="536.3" height="1017.6"/>
</g>
</svg>
